<?xml version="1.0" encoding="UTF-8"?>
<svg version="1.1" xmlns="http://www.w3.org/2000/svg" width="512" height="512">
<path d="M0 0 C0.82123962 -0.00438225 1.64247924 -0.00876451 2.4886049 -0.01327956 C5.24438925 -0.02664922 8.00014164 -0.03284232 10.75595093 -0.03897095 C12.7304397 -0.04687339 14.70492703 -0.05514243 16.67941284 -0.06375122 C23.1676394 -0.08995611 29.65587236 -0.10527794 36.14413452 -0.11953735 C38.37891011 -0.12489778 40.61368565 -0.13027529 42.84846115 -0.13566971 C52.1458232 -0.15729671 61.44318352 -0.17603269 70.74056435 -0.1872921 C84.05795103 -0.20352672 97.37504575 -0.23669503 110.69232237 -0.29369295 C120.05978543 -0.33241651 129.42717048 -0.3519277 138.79471147 -0.35721266 C144.38759244 -0.36086293 149.98016188 -0.37285013 155.57295609 -0.4053154 C160.83764027 -0.43543806 166.10182512 -0.4416927 171.36657715 -0.42993164 C173.29424274 -0.42971126 175.22193179 -0.43798714 177.14951706 -0.45558548 C191.45818651 -0.57906325 200.14208831 0.89970768 210.70193481 11.26062012 C211.87287689 12.44674393 211.87287689 12.44674393 213.06747437 13.65682983 C214.34749832 14.9237114 214.34749832 14.9237114 215.65338135 16.21618652 C217.96826239 18.51296057 220.27169453 20.82045386 222.56954527 23.13424587 C224.98910982 25.56657508 227.42097161 27.98656242 229.85083008 30.40859985 C233.92621184 34.47491729 237.99101129 38.55158932 242.04989624 42.6343689 C246.72810793 47.33980395 251.42408378 52.02693174 256.12965429 56.70499492 C260.18671249 60.73929282 264.23385811 64.78334075 268.27302134 68.83555532 C270.67792299 71.24821121 273.08597784 73.65745938 275.5030632 76.05791473 C278.1956954 78.73780295 280.87170495 81.4332805 283.54403687 84.13339233 C284.3368103 84.91604462 285.12958374 85.6986969 285.94638062 86.50506592 C286.67787323 87.25065765 287.40936584 87.99624939 288.1630249 88.76443481 C288.79529181 89.39858685 289.42755871 90.03273888 290.07898521 90.68610764 C295.97148766 98.59515677 296.49485368 105.95916348 296.42550659 115.62104797 C296.43012184 116.97462987 296.43647893 118.32820675 296.44441557 119.68177325 C296.46104694 123.38198708 296.45289106 127.08178596 296.4404707 130.7820009 C296.43139688 134.78005433 296.44540151 138.77803786 296.45639038 142.77607727 C296.47415587 150.60088096 296.47034429 158.42553098 296.45873982 166.25034063 C296.44969736 172.61160934 296.44848501 178.97283506 296.45283508 185.33410835 C296.45344802 186.2403202 296.45406095 187.14653205 296.45469245 188.08020486 C296.45597139 189.92130976 296.45726824 191.76241464 296.45858282 193.60351951 C296.46998301 210.85883796 296.45688405 228.11407134 296.43538135 245.36937583 C296.41751391 260.16535037 296.42061265 274.96119936 296.4390564 289.75717163 C296.46047823 306.95021508 296.46888125 324.14318399 296.45660734 341.33623892 C296.45533318 343.17078466 296.4540757 345.00533041 296.45283508 346.83987617 C296.45190943 348.19372541 296.45190943 348.19372541 296.45096508 349.57492514 C296.44751589 355.92577642 296.45333128 362.2765803 296.4627533 368.62742424 C296.47398939 376.37107526 296.47089957 384.11456415 296.44963032 391.85819667 C296.43914103 395.80683335 296.43496157 399.75520005 296.44822693 403.70383453 C296.46020123 407.32299754 296.45350635 410.94164192 296.43231672 414.5607583 C296.42577632 416.48059433 296.43874174 418.40046674 296.45254564 420.32026428 C296.34924457 431.77751405 293.33536447 439.62994982 285.43319702 447.95077515 C279.78472557 452.89757312 272.79299074 456.2719882 265.23473263 456.28812122 C264.2665425 456.29257907 263.29835237 456.29703691 262.30082315 456.30162984 C261.23469925 456.30144548 260.16857534 456.30126112 259.07014465 456.30107117 C257.93940948 456.30474786 256.80867431 456.30842454 255.64367443 456.31221265 C251.8344971 456.32327264 248.02534702 456.32709727 244.21615601 456.3309021 C241.49305487 456.33663191 238.76995783 456.34379877 236.04685974 456.35081482 C227.85963675 456.37058013 219.67241253 456.38064638 211.48517165 456.38954261 C207.62868948 456.39392616 203.77220869 456.39929287 199.91572762 456.40453148 C187.09355549 456.42154525 174.27138422 456.43603843 161.44920254 456.44328022 C158.12152035 456.44519009 154.79383817 456.44711042 151.46615601 456.44906616 C150.63908471 456.4495499 149.81201341 456.45003364 148.95987935 456.45053204 C135.56814008 456.4588286 122.17649026 456.4841585 108.78479003 456.51664684 C95.03239406 456.54973783 81.28004349 456.5677309 67.5276075 456.57092446 C59.80756306 456.57308787 52.08764896 456.58181154 44.36764336 456.60738564 C37.7913336 456.6291207 31.21518584 456.63712939 24.63884424 456.62741885 C21.28556656 456.62288185 17.93289319 456.62691771 14.57961655 456.6441803 C10.93742517 456.66187899 7.29607701 456.65480168 3.65388489 456.64164734 C2.07812161 456.65810121 2.07812161 456.65810121 0.47052473 456.67488748 C-9.48967781 456.58824556 -17.17635936 453.74295943 -24.40274048 446.86483765 C-32.92071416 438.18839004 -35.20390026 428.19045655 -35.21106243 416.23251724 C-35.21281547 415.56927016 -35.21456851 414.90602307 -35.21637467 414.22267759 C-35.22101277 412.00850742 -35.21857484 409.79440355 -35.21614075 407.58023071 C-35.21800982 405.97335626 -35.22031091 404.36648226 -35.22300607 402.75960898 C-35.22911854 398.35004219 -35.22899112 393.94049438 -35.22781169 389.53092432 C-35.22760755 384.77277999 -35.23312779 380.01464174 -35.23786926 375.25650024 C-35.2461734 365.93652636 -35.248924 356.61655881 -35.24948164 347.29658154 C-35.24995692 339.72008695 -35.25201229 332.14359445 -35.25518227 324.56710052 C-35.26398828 303.08254272 -35.26860174 281.59798991 -35.26785179 260.11343029 C-35.26781184 258.9553498 -35.26777188 257.7972693 -35.26773071 256.60409546 C-35.26768983 255.44459962 -35.26764895 254.28510379 -35.26760683 253.09047171 C-35.2672004 234.30014694 -35.27676935 215.5098422 -35.29086908 196.71952322 C-35.30523503 177.4220253 -35.31213914 158.12453716 -35.3112753 138.82703376 C-35.3109434 127.99447518 -35.31368739 117.16193761 -35.32445335 106.32938385 C-35.33356123 97.10611469 -35.33573124 87.88287606 -35.32894393 78.65960434 C-35.32568016 73.9555026 -35.3256169 69.25145944 -35.33429718 64.54736328 C-35.34216938 60.23677937 -35.34072337 55.92630042 -35.33201305 51.61571905 C-35.33047965 50.0605607 -35.33228816 48.50539449 -35.33787312 46.95024541 C-35.38711038 32.2611353 -34.71819602 19.96706081 -24.26992798 8.84140015 C-16.97832624 1.92195955 -9.85379754 0.00639063 0 0 Z M-7.08242798 27.15390015 C-9.61354584 31.96685671 -10.45766705 35.55748307 -10.4599514 41.05522156 C-10.46431172 41.71629028 -10.46867205 42.37735901 -10.4731645 43.05846012 C-10.48408045 45.2653712 -10.47371642 47.47165222 -10.46337891 49.67855835 C-10.46683693 51.28003667 -10.47160246 52.88151262 -10.47756064 54.48298359 C-10.49008046 58.8775294 -10.48389578 63.27187968 -10.47460198 67.66642618 C-10.46781587 72.40814442 -10.47829055 77.14982897 -10.48654175 81.89154053 C-10.49988593 91.17810981 -10.49699828 100.46460637 -10.48830383 109.7511785 C-10.48153039 117.29815502 -10.48060909 124.84511116 -10.48387527 132.39208984 C-10.48433497 133.46596052 -10.48479467 134.53983119 -10.4852683 135.64624339 C-10.48622747 137.82774854 -10.48720011 140.00925369 -10.48818608 142.19075882 C-10.49674198 162.64972737 -10.48690269 183.1086556 -10.47078498 203.56761754 C-10.45738162 221.12471891 -10.45970966 238.68176078 -10.47354126 256.23886108 C-10.48959352 276.62431283 -10.49591799 297.00972924 -10.48670447 317.39518642 C-10.48574881 319.56869443 -10.4848057 321.74220244 -10.48387527 323.91571045 C-10.48341245 324.98513533 -10.48294962 326.05456022 -10.48247277 327.15639192 C-10.47988182 334.69484608 -10.48425614 342.23327783 -10.49131393 349.77172852 C-10.49972519 358.95780155 -10.49745665 368.14379767 -10.4814717 377.32986188 C-10.47358398 382.01728756 -10.47050597 386.70458498 -10.48041916 391.39200974 C-10.48935612 395.68270051 -10.48444968 399.97314408 -10.4684865 404.26381242 C-10.46513447 405.81620488 -10.46684227 407.36861821 -10.47411387 408.92099726 C-10.4832431 411.03182093 -10.47387383 413.14179904 -10.4599514 415.25257874 C-10.45946434 416.42477809 -10.45897729 417.59697744 -10.45847547 418.80469799 C-9.99954512 422.89208205 -8.98624518 425.50799128 -7.08242798 429.15390015 C-1.42632547 432.74435207 4.11888961 432.57666044 10.67224121 432.52812195 C12.28075701 432.53408356 12.28075701 432.53408356 13.92176807 432.5401656 C17.50920934 432.54977768 21.09625519 432.53797675 24.6836853 432.5262146 C27.25785469 432.52864288 29.83202313 432.53236256 32.40618896 432.53727722 C38.66812935 432.54675219 44.92995428 432.54017719 51.19188608 432.52801428 C58.4852799 432.51437671 65.77864639 432.51603364 73.07204972 432.51814761 C86.08454568 432.52133548 99.09698684 432.50968053 112.10946655 432.49008179 C124.73513456 432.47107065 137.36073838 432.46399654 149.98641968 432.46957397 C163.73935251 432.47563142 177.49225715 432.47545593 191.24518764 432.46408814 C192.71148165 432.46288086 194.17777566 432.46167487 195.64406967 432.4604702 C196.36549809 432.45986666 197.0869265 432.45926312 197.83021639 432.45864129 C202.91399643 432.45476214 207.99776597 432.45515573 213.08154678 432.45705605 C219.92203502 432.45939934 226.76243924 432.45085122 233.60290909 432.43499565 C236.11640074 432.43074594 238.62990076 432.42990684 241.14339447 432.43268585 C244.56797758 432.43589833 247.99231253 432.42684919 251.41687012 432.41459656 C252.41695953 432.41837588 253.41704893 432.42215521 254.44744408 432.42604905 C260.38813032 432.38831881 264.44814592 432.19008317 269.17309189 428.29409504 C271.9112206 423.36525829 271.67840761 418.46826712 271.82925415 412.91078186 C271.87782806 411.6530963 271.92640197 410.39541073 271.97644782 409.09961349 C272.10960659 405.60923501 272.21736445 402.11847295 272.32001352 398.62708032 C272.41098654 395.63013362 272.51603681 392.63373606 272.62042215 389.63723149 C273.61185987 360.99192609 274.13725108 332.33168538 274.56207657 303.67306805 C274.61864883 299.92471858 274.67631503 296.17638775 274.73495483 292.42807007 C274.7494807 291.49666995 274.76400656 290.56526982 274.7789726 289.60564546 C275.00406521 275.58618228 275.42926512 261.58235516 275.96542358 247.57162476 C276.78088659 225.9797005 277.29767043 204.39890464 277.30819702 182.7906189 C277.30967259 181.4892299 277.30967259 181.4892299 277.31117797 180.16155022 C277.38095645 121.82428415 277.38095645 121.82428415 247.76760864 73.16557312 C228.9514357 54.11835336 228.9514357 54.11835336 205.91757202 43.15390015 C205.91757202 59.98390015 205.91757202 76.81390015 205.91757202 94.15390015 C218.19802999 94.28473121 218.19802999 94.28473121 230.47885132 94.36166382 C232.02486562 94.38812179 233.57085028 94.41640164 235.11679077 94.4468689 C235.91169922 94.44288086 236.70660767 94.43889282 237.52560425 94.43478394 C241.82862196 94.5447372 243.44024564 94.76738163 246.90512085 97.5730896 C250.13059989 101.70951311 250.44285919 105.00013923 249.91757202 110.15390015 C248.49953134 113.90753724 247.39802245 114.90312975 243.82528687 116.76791382 C239.67837721 118.45504712 235.88851187 118.57197101 231.45663452 118.5171814 C230.66663055 118.5176799 229.87662659 118.51817841 229.06268311 118.51869202 C227.40035473 118.51636394 225.73802198 118.50671071 224.07577515 118.49008179 C221.55656743 118.46653098 219.03842423 118.46952571 216.51913452 118.47616577 C214.89412832 118.47058607 213.26912651 118.46347435 211.64413452 118.4546814 C210.90321564 118.4555928 210.16229675 118.45650421 209.39892578 118.45744324 C202.61784791 118.36735565 195.14625464 117.77674464 189.60507202 113.52890015 C188.99018921 113.08288452 188.3753064 112.6368689 187.74179077 112.17733765 C180.40589775 104.04030856 181.31326607 94.58888558 181.30819702 84.31015015 C181.2932013 82.57278919 181.27647124 80.83544242 181.25808716 79.09811401 C181.21455746 74.5476513 181.19444661 69.99738085 181.17935181 65.44674683 C181.15972864 60.79432881 181.1177646 56.14211686 181.07772827 51.48983765 C181.00258214 42.37792227 180.95219644 33.26605336 180.91757202 24.15390015 C157.43902021 24.08381273 133.96048408 24.03091324 110.48184872 23.99846363 C99.58026062 23.98299611 88.67873753 23.96190872 77.77719116 23.92758179 C68.27517912 23.897676 58.77321417 23.87832431 49.27115637 23.87163466 C44.24009311 23.86772442 39.20916454 23.85853708 34.17814445 23.83670998 C29.44137522 23.81632626 24.70479599 23.81007019 19.96798706 23.8145771 C18.2309675 23.81375275 16.4939415 23.80779834 14.75695992 23.79628372 C12.38134589 23.7813099 10.00644488 23.78496405 7.6308136 23.7931366 C6.94694185 23.78439807 6.2630701 23.77565955 5.55847496 23.76665622 C0.71504553 23.81154926 -2.9163904 24.66506649 -7.08242798 27.15390015 Z " fill="#221E1F" transform="translate(125.08242797851563,27.846099853515625)"/>
<path d="M0 0 C0.79068888 -0.00085442 1.58137776 -0.00170885 2.39602691 -0.00258917 C5.0539018 -0.00424045 7.71171402 0.00127169 10.36958313 0.00672913 C12.27147927 0.0070111 14.17337553 0.00685307 16.07527161 0.00628662 C21.24642613 0.00599904 26.41755758 0.01188941 31.58870673 0.01886058 C36.98993295 0.02510068 42.39115965 0.02569844 47.79238892 0.02688599 C58.02396708 0.02999736 68.25553459 0.03820815 78.48710805 0.04823548 C90.13387116 0.05940261 101.78063477 0.06490858 113.4274019 0.06993091 C137.38901054 0.08039091 161.35060971 0.09798662 185.31221008 0.12025452 C185.31767853 1.65668358 185.31767853 1.65668358 185.32325745 3.22415161 C185.36024486 12.89066679 185.41805852 22.55686452 185.49611282 32.22313786 C185.53557354 37.19235593 185.56776895 42.16139718 185.58320618 47.13075256 C185.59838197 51.92907176 185.63284402 56.72690477 185.6805191 61.52500725 C185.69532337 63.35292262 185.70325055 65.1809074 185.70409393 67.00888252 C185.70646825 69.57525718 185.73358405 72.14029325 185.76631165 74.70643616 C185.76128128 75.45738052 185.75625092 76.20832489 185.75106812 76.98202515 C185.85782508 82.41469115 187.18690162 85.6504645 190.31221008 90.12025452 C195.72539754 93.4074748 200.61421069 93.52640662 206.74580383 93.41322327 C207.623741 93.40897842 208.50167816 93.40473358 209.40621948 93.40036011 C212.18770588 93.38367742 214.96844572 93.34604537 217.74971008 93.30775452 C219.64488185 93.29269419 221.54006507 93.27900815 223.43525696 93.26673889 C228.06119205 93.23380811 232.68657485 93.1820988 237.31221008 93.12025452 C237.64221008 91.47025452 237.97221008 89.82025452 238.31221008 88.12025452 C235.01787362 86.47308629 231.34864165 86.96264289 227.72627258 86.94447327 C225.97365639 86.92127618 224.22105218 86.89715888 222.46846008 86.87220764 C219.70112581 86.83707547 216.93423254 86.80774009 214.16670227 86.79432678 C211.49851425 86.77885834 208.83161931 86.73865831 206.16377258 86.69447327 C205.33761444 86.69638168 204.5114563 86.6982901 203.66026306 86.70025635 C202.49918533 86.67551994 202.49918533 86.67551994 201.31465149 86.65028381 C200.29777756 86.64148445 200.29777756 86.64148445 199.26036072 86.63250732 C196.26319178 85.84442237 195.13363803 84.61060844 193.31221008 82.12025452 C192.93766028 79.49907123 192.80409813 77.30455589 192.85810852 74.68959045 C192.85752441 73.94773499 192.85694031 73.20587952 192.8563385 72.44154358 C192.85911983 69.9954255 192.89021222 67.55053405 192.92158508 65.10462952 C192.92904734 63.40641445 192.93474035 61.70819075 192.93873596 60.00996399 C192.95399357 55.54469442 192.99327619 51.07994699 193.03755188 46.61488342 C193.07850201 42.0568498 193.09674641 37.49873165 193.11689758 32.94056702 C193.15977055 24.0002337 193.22802323 15.06028756 193.31221008 6.12025452 C198.39972711 10.38288035 203.17789428 14.83747221 207.86811829 19.53089905 C208.58769211 20.24711426 209.30726593 20.96332947 210.04864502 21.70124817 C212.40606061 24.04922995 214.75974882 26.40090331 217.11299133 28.75306702 C218.75722059 30.39408063 220.4015241 32.03501983 222.04589844 33.67588806 C225.48125598 37.10527491 228.91455745 40.53670527 232.34663391 43.96937561 C236.747735 48.37057871 241.15569795 52.76484001 245.56542683 57.15739632 C248.95825346 60.53912073 252.34654192 63.92536379 255.73355675 67.31290817 C257.35747713 68.93564767 258.98302125 70.55676392 260.61020851 72.17622757 C262.87932995 74.43557651 265.14205748 76.70114302 267.40327454 78.96839905 C268.07704132 79.63654633 268.75080811 80.3046936 269.44499207 80.99308777 C270.06027267 81.61256287 270.67555328 82.23203796 271.30947876 82.87028503 C271.84424489 83.4045064 272.37901102 83.93872776 272.92998219 84.48913765 C275.94455769 88.04652856 276.56254647 90.97394127 276.56668568 95.59324455 C276.57251787 96.71219514 276.57835006 97.83114572 276.58435899 98.9840039 C276.58057967 100.21336327 276.57680034 101.44272264 276.57290649 102.70933533 C276.57673204 104.01525639 276.58055759 105.32117745 276.58449906 106.66667187 C276.5948072 110.2945845 276.59259011 113.92239862 276.58831847 117.55031943 C276.58585632 121.46179513 276.59485906 125.37324679 276.60235596 129.28471375 C276.61511949 136.9490653 276.61689457 144.61338186 276.61455569 152.27774225 C276.61277413 158.50662366 276.61451869 164.73549441 276.61878014 170.96437454 C276.61937533 171.85021584 276.61997051 172.73605714 276.62058374 173.64874212 C276.62179547 175.4482216 276.6230096 177.24770107 276.62422612 179.04718055 C276.63510813 195.93130622 276.6329361 212.81541192 276.62684127 229.69953872 C276.62167215 245.15025443 276.63292625 260.6009071 276.65193949 276.05161034 C276.67130548 291.91036595 276.67957603 307.76909172 276.67581624 323.62785923 C276.67390223 332.53374056 276.67641112 341.43956822 276.69053078 350.34543991 C276.70242982 357.92753253 276.70386614 365.50953846 276.69174061 373.09163223 C276.68584136 376.96071881 276.68478122 380.82964672 276.69674301 384.69872284 C276.70955554 388.89167717 276.6991622 393.08425196 276.68643188 397.27720642 C276.69380617 398.50210435 276.70118045 399.72700227 276.7087782 400.98901832 C276.66115892 408.41726591 275.96969988 413.03182043 270.99971008 418.80775452 C264.68373035 424.24243475 259.36999021 424.557479 251.36303711 424.52139282 C250.25761796 424.52818949 249.15219882 424.53498616 248.01328212 424.54198879 C244.30773487 424.56098521 240.60251745 424.5585223 236.89692688 424.55604553 C234.24071523 424.56502153 231.58452944 424.57514446 228.92832947 424.58657837 C222.46106731 424.61147397 215.9938872 424.6197418 209.52658113 424.6214155 C204.26839872 424.62284213 199.01024333 424.62901208 193.75206947 424.63851738 C178.83662542 424.66493064 163.92124606 424.67877652 149.00577845 424.67652596 C148.20205958 424.67640609 147.39834071 424.67628622 146.57026672 424.67616272 C145.36321252 424.67597876 145.36321252 424.67597876 144.13177339 424.67579108 C131.09190609 424.67457185 118.05229874 424.70327787 105.01250663 424.74557782 C91.61595768 424.78869136 78.21953545 424.80938716 64.82291538 424.80679649 C57.30465992 424.80580133 49.786677 424.81400887 42.26848412 424.84633064 C35.86707841 424.87367532 29.46606876 424.88014786 23.06462988 424.85980237 C19.8004494 424.85002061 16.53718436 424.85305612 13.27304649 424.87586212 C9.72879864 424.89901972 6.18653905 424.88509445 2.64233398 424.86196899 C1.61819529 424.87739968 0.59405659 424.89283037 -0.46111661 424.90872866 C-7.62276211 424.80561571 -12.44718267 423.10780446 -17.68778992 418.12025452 C-23.44568758 411.59028495 -22.24285044 402.37729773 -22.18899536 394.21632385 C-22.19289055 392.58581988 -22.19853274 390.9553193 -22.20576626 389.32482672 C-22.22050761 384.85460342 -22.21034754 380.38473286 -22.19602954 375.91452098 C-22.18491615 371.08963342 -22.19686358 366.26479518 -22.20587158 361.43991089 C-22.21980352 351.99202817 -22.21224817 342.54427912 -22.197196 333.09640276 C-22.18033424 322.09380774 -22.18354638 311.09124601 -22.18729008 300.08864206 C-22.19316858 280.45706269 -22.17899747 260.82554746 -22.15434265 241.19398499 C-22.13042193 222.14480688 -22.12333842 203.09571447 -22.13383484 184.04652405 C-22.14524446 163.30287502 -22.14717355 142.55926563 -22.13273674 121.81561708 C-22.1312109 119.60363039 -22.12969055 117.39164369 -22.12817574 115.17965698 C-22.12741792 114.09131903 -22.12666011 113.00298107 -22.12587933 111.88166317 C-22.12113685 104.21242359 -22.12298769 96.54320171 -22.12724113 88.8739624 C-22.1321681 79.52763922 -22.12618203 70.18139706 -22.10634684 60.83509243 C-22.09647607 56.06652937 -22.09136745 51.29808967 -22.09923935 46.52952003 C-22.10629916 42.16356229 -22.09948446 37.79785341 -22.08163572 33.43192846 C-22.07759318 31.85330557 -22.07858785 30.27465998 -22.08515459 28.69604558 C-22.15321341 10.80226698 -22.15321341 10.80226698 -16.75028992 5.06166077 C-16.06966492 4.6066217 -15.38903992 4.15158264 -14.68778992 3.68275452 C-14.00716492 3.20966858 -13.32653992 2.73658264 -12.62528992 2.24916077 C-8.49584317 -0.156908 -4.62503162 -0.01815107 0 0 Z M-10.68778992 11.12025452 C-13.21890778 15.93321108 -14.06302899 19.52383744 -14.06531334 25.02157593 C-14.06967366 25.68264465 -14.07403398 26.34371338 -14.07852644 27.02481449 C-14.08944239 29.23172557 -14.07907836 31.43800659 -14.06874084 33.64491272 C-14.07219887 35.24639104 -14.0769644 36.84786699 -14.08292258 38.44933796 C-14.0954424 42.84388377 -14.08925772 47.23823405 -14.07996392 51.63278055 C-14.07317781 56.37449879 -14.08365249 61.11618334 -14.09190369 65.8578949 C-14.10524787 75.14446418 -14.10236022 84.43096074 -14.09366576 93.71753287 C-14.08689233 101.26450939 -14.08597103 108.81146553 -14.08923721 116.35844421 C-14.08969691 117.43231489 -14.09015661 118.50618556 -14.09063024 119.61259776 C-14.09158941 121.79410291 -14.09256205 123.97560806 -14.09354801 126.15711319 C-14.10210392 146.61608174 -14.09226463 167.07500997 -14.07614692 187.53397191 C-14.06274356 205.09107328 -14.06507159 222.64811515 -14.0789032 240.20521545 C-14.09495546 260.5906672 -14.10127993 280.97608361 -14.09206641 301.36154079 C-14.09111075 303.5350488 -14.09016764 305.70855681 -14.08923721 307.88206482 C-14.08877439 308.9514897 -14.08831156 310.02091459 -14.08783471 311.12274629 C-14.08524376 318.66120045 -14.08961808 326.1996322 -14.09667587 333.73808289 C-14.10508713 342.92415592 -14.10281858 352.11015204 -14.08683364 361.29621625 C-14.07894591 365.98364193 -14.07586791 370.67093935 -14.0857811 375.35836411 C-14.09471806 379.64905488 -14.08981161 383.93949845 -14.07384844 388.23016679 C-14.07049641 389.78255925 -14.07220421 391.33497258 -14.07947581 392.88735163 C-14.08860504 394.9981753 -14.07923576 397.10815341 -14.06531334 399.21893311 C-14.06482628 400.39113246 -14.06433923 401.56333181 -14.06383741 402.77105236 C-13.60490706 406.85843642 -12.59160712 409.47434565 -10.68778992 413.12025452 C-5.03168741 416.71070644 0.51352767 416.54301481 7.06687927 416.49447632 C8.67539507 416.50043793 8.67539507 416.50043793 10.31640613 416.50651997 C13.9038474 416.51613205 17.49089326 416.50433112 21.07832336 416.49256897 C23.65249275 416.49499725 26.22666119 416.49871693 28.80082703 416.50363159 C35.06276741 416.51310656 41.32459234 416.50653156 47.58652414 416.49436865 C54.87991797 416.48073108 62.17328445 416.48238801 69.46668778 416.48450198 C82.47918374 416.48768985 95.4916249 416.4760349 108.50410461 416.45643616 C121.12977262 416.43742502 133.75537644 416.43035091 146.38105774 416.43592834 C160.13399058 416.44198579 173.88689521 416.4418103 187.6398257 416.43044251 C189.10611971 416.42923523 190.57241372 416.42802924 192.03870773 416.42682457 C192.76013615 416.42622103 193.48156456 416.42561749 194.22485445 416.42499566 C199.30863449 416.42111651 204.39240403 416.4215101 209.47618484 416.42341042 C216.31667308 416.42575371 223.1570773 416.41720559 229.99754715 416.40135002 C232.5110388 416.39710031 235.02453882 416.39626121 237.53803253 416.39904022 C240.96261565 416.4022527 244.38695059 416.39320356 247.81150818 416.38095093 C248.81159759 416.38473025 249.811687 416.38850958 250.84208214 416.39240342 C256.78276838 416.35467318 260.84278399 416.15643754 265.56772995 412.26044941 C268.30585866 407.33161266 268.07304567 402.43462149 268.22389221 396.87713623 C268.27246612 395.61945067 268.32104003 394.3617651 268.37108588 393.06596786 C268.50424465 389.57558938 268.61200251 386.08482732 268.71465158 382.59343469 C268.80562461 379.59648799 268.91067487 376.60009043 269.01506022 373.60358586 C270.00649793 344.95828046 270.53188914 316.29803975 270.95671463 287.63942242 C271.0132869 283.89107295 271.07095309 280.14274212 271.1295929 276.39442444 C271.14411876 275.46302432 271.15864462 274.53162419 271.17361066 273.57199983 C271.39870327 259.55253665 271.82390319 245.54870953 272.36006165 231.53797913 C273.17552465 209.94605487 273.6923085 188.36525901 273.70283508 166.75697327 C273.70431065 165.45558427 273.70431065 165.45558427 273.70581603 164.12790459 C273.77559451 105.79063852 273.77559451 105.79063852 244.1622467 57.13192749 C225.34607376 38.08470773 225.34607376 38.08470773 202.31221008 27.12025452 C202.31221008 43.95025452 202.31221008 60.78025452 202.31221008 78.12025452 C214.59266805 78.25108558 214.59266805 78.25108558 226.87348938 78.32801819 C228.41950368 78.35447616 229.96548834 78.38275601 231.51142883 78.41322327 C232.30633728 78.40923523 233.10124573 78.40524719 233.92024231 78.40113831 C238.22326003 78.51109157 239.83488371 78.733736 243.29975891 81.53944397 C246.52523795 85.67586748 246.83749725 88.9664936 246.31221008 94.12025452 C244.8941694 97.87389161 243.79266052 98.86948412 240.21992493 100.73426819 C236.07301527 102.42140149 232.28314993 102.53832538 227.85127258 102.48353577 C227.06126862 102.48403427 226.27126465 102.48453278 225.45732117 102.48504639 C223.79499279 102.48271831 222.13266004 102.47306508 220.47041321 102.45643616 C217.95120549 102.43288535 215.4330623 102.43588008 212.91377258 102.44252014 C211.28876638 102.43694044 209.66376457 102.42982872 208.03877258 102.42103577 C207.2978537 102.42194717 206.55693481 102.42285858 205.79356384 102.42379761 C199.01248597 102.33371002 191.5408927 101.74309901 185.99971008 97.49525452 C185.38482727 97.04923889 184.76994446 96.60322327 184.13642883 96.14369202 C176.80053581 88.00666293 177.70790413 78.55523995 177.70283508 68.27650452 C177.68783936 66.53914356 177.6711093 64.80179679 177.65272522 63.06446838 C177.60919553 58.51400567 177.58908467 53.96373522 177.57398987 49.4131012 C177.55436671 44.76068318 177.51240266 40.10847123 177.47236633 35.45619202 C177.3972202 26.34427664 177.34683451 17.23240773 177.31221008 8.12025452 C153.83365827 8.0501671 130.35512214 7.99726761 106.87648678 7.964818 C95.97489868 7.94935048 85.07337559 7.92826309 74.17182922 7.89393616 C64.66981718 7.86403037 55.16785223 7.84467868 45.66579443 7.83798903 C40.63473117 7.83407879 35.6038026 7.82489145 30.57278252 7.80306435 C25.83601328 7.78268063 21.09943405 7.77642456 16.36262512 7.78093147 C14.62560557 7.78010712 12.88857956 7.77415271 11.15159798 7.76263809 C8.77598395 7.74766427 6.40108294 7.75131842 4.02545166 7.75949097 C3.34157991 7.75075244 2.65770816 7.74201392 1.95311302 7.73301059 C-2.8903164 7.77790363 -6.52175233 8.63142086 -10.68778992 11.12025452 Z " fill="#000000" transform="translate(128.6877899169922,43.87974548339844)"/>
<path d="M0 0 C0.82123962 -0.00438225 1.64247924 -0.00876451 2.4886049 -0.01327956 C5.24438925 -0.02664922 8.00014164 -0.03284232 10.75595093 -0.03897095 C12.7304397 -0.04687339 14.70492703 -0.05514243 16.67941284 -0.06375122 C23.1676394 -0.08995611 29.65587236 -0.10527794 36.14413452 -0.11953735 C38.37891011 -0.12489778 40.61368565 -0.13027529 42.84846115 -0.13566971 C52.1458232 -0.15729671 61.44318352 -0.17603269 70.74056435 -0.1872921 C84.05795103 -0.20352672 97.37504575 -0.23669503 110.69232237 -0.29369295 C120.05978543 -0.33241651 129.42717048 -0.3519277 138.79471147 -0.35721266 C144.38759244 -0.36086293 149.98016188 -0.37285013 155.57295609 -0.4053154 C160.83764027 -0.43543806 166.10182512 -0.4416927 171.36657715 -0.42993164 C173.29424274 -0.42971126 175.22193179 -0.43798714 177.14951706 -0.45558548 C191.45818651 -0.57906325 200.14208831 0.89970768 210.70193481 11.26062012 C211.87287689 12.44674393 211.87287689 12.44674393 213.06747437 13.65682983 C214.34749832 14.9237114 214.34749832 14.9237114 215.65338135 16.21618652 C217.96826239 18.51296057 220.27169453 20.82045386 222.56954527 23.13424587 C224.98910982 25.56657508 227.42097161 27.98656242 229.85083008 30.40859985 C233.92621184 34.47491729 237.99101129 38.55158932 242.04989624 42.6343689 C246.72810793 47.33980395 251.42408378 52.02693174 256.12965429 56.70499492 C260.18671249 60.73929282 264.23385811 64.78334075 268.27302134 68.83555532 C270.67792299 71.24821121 273.08597784 73.65745938 275.5030632 76.05791473 C278.1956954 78.73780295 280.87170495 81.4332805 283.54403687 84.13339233 C284.3368103 84.91604462 285.12958374 85.6986969 285.94638062 86.50506592 C286.67787323 87.25065765 287.40936584 87.99624939 288.1630249 88.76443481 C288.79529181 89.39858685 289.42755871 90.03273888 290.07898521 90.68610764 C295.97148766 98.59515677 296.49485368 105.95916348 296.42550659 115.62104797 C296.43012184 116.97462987 296.43647893 118.32820675 296.44441557 119.68177325 C296.46104694 123.38198708 296.45289106 127.08178596 296.4404707 130.7820009 C296.43139688 134.78005433 296.44540151 138.77803786 296.45639038 142.77607727 C296.47415587 150.60088096 296.47034429 158.42553098 296.45873982 166.25034063 C296.44969736 172.61160934 296.44848501 178.97283506 296.45283508 185.33410835 C296.45344802 186.2403202 296.45406095 187.14653205 296.45469245 188.08020486 C296.45597139 189.92130976 296.45726824 191.76241464 296.45858282 193.60351951 C296.46998301 210.85883796 296.45688405 228.11407134 296.43538135 245.36937583 C296.41751391 260.16535037 296.42061265 274.96119936 296.4390564 289.75717163 C296.46047823 306.95021508 296.46888125 324.14318399 296.45660734 341.33623892 C296.45533318 343.17078466 296.4540757 345.00533041 296.45283508 346.83987617 C296.45190943 348.19372541 296.45190943 348.19372541 296.45096508 349.57492514 C296.44751589 355.92577642 296.45333128 362.2765803 296.4627533 368.62742424 C296.47398939 376.37107526 296.47089957 384.11456415 296.44963032 391.85819667 C296.43914103 395.80683335 296.43496157 399.75520005 296.44822693 403.70383453 C296.46020123 407.32299754 296.45350635 410.94164192 296.43231672 414.5607583 C296.42577632 416.48059433 296.43874174 418.40046674 296.45254564 420.32026428 C296.34924457 431.77751405 293.33536447 439.62994982 285.43319702 447.95077515 C279.78472557 452.89757312 272.79299074 456.2719882 265.23473263 456.28812122 C264.2665425 456.29257907 263.29835237 456.29703691 262.30082315 456.30162984 C261.23469925 456.30144548 260.16857534 456.30126112 259.07014465 456.30107117 C257.93940948 456.30474786 256.80867431 456.30842454 255.64367443 456.31221265 C251.8344971 456.32327264 248.02534702 456.32709727 244.21615601 456.3309021 C241.49305487 456.33663191 238.76995783 456.34379877 236.04685974 456.35081482 C227.85963675 456.37058013 219.67241253 456.38064638 211.48517165 456.38954261 C207.62868948 456.39392616 203.77220869 456.39929287 199.91572762 456.40453148 C187.09355549 456.42154525 174.27138422 456.43603843 161.44920254 456.44328022 C158.12152035 456.44519009 154.79383817 456.44711042 151.46615601 456.44906616 C150.63908471 456.4495499 149.81201341 456.45003364 148.95987935 456.45053204 C135.56814008 456.4588286 122.17649026 456.4841585 108.78479003 456.51664684 C95.03239406 456.54973783 81.28004349 456.5677309 67.5276075 456.57092446 C59.80756306 456.57308787 52.08764896 456.58181154 44.36764336 456.60738564 C37.7913336 456.6291207 31.21518584 456.63712939 24.63884424 456.62741885 C21.28556656 456.62288185 17.93289319 456.62691771 14.57961655 456.6441803 C10.93742517 456.66187899 7.29607701 456.65480168 3.65388489 456.64164734 C2.07812161 456.65810121 2.07812161 456.65810121 0.47052473 456.67488748 C-9.48967781 456.58824556 -17.17635936 453.74295943 -24.40274048 446.86483765 C-32.92071416 438.18839004 -35.20390026 428.19045655 -35.21106243 416.23251724 C-35.21281547 415.56927016 -35.21456851 414.90602307 -35.21637467 414.22267759 C-35.22101277 412.00850742 -35.21857484 409.79440355 -35.21614075 407.58023071 C-35.21800982 405.97335626 -35.22031091 404.36648226 -35.22300607 402.75960898 C-35.22911854 398.35004219 -35.22899112 393.94049438 -35.22781169 389.53092432 C-35.22760755 384.77277999 -35.23312779 380.01464174 -35.23786926 375.25650024 C-35.2461734 365.93652636 -35.248924 356.61655881 -35.24948164 347.29658154 C-35.24995692 339.72008695 -35.25201229 332.14359445 -35.25518227 324.56710052 C-35.26398828 303.08254272 -35.26860174 281.59798991 -35.26785179 260.11343029 C-35.26781184 258.9553498 -35.26777188 257.7972693 -35.26773071 256.60409546 C-35.26768983 255.44459962 -35.26764895 254.28510379 -35.26760683 253.09047171 C-35.2672004 234.30014694 -35.27676935 215.5098422 -35.29086908 196.71952322 C-35.30523503 177.4220253 -35.31213914 158.12453716 -35.3112753 138.82703376 C-35.3109434 127.99447518 -35.31368739 117.16193761 -35.32445335 106.32938385 C-35.33356123 97.10611469 -35.33573124 87.88287606 -35.32894393 78.65960434 C-35.32568016 73.9555026 -35.3256169 69.25145944 -35.33429718 64.54736328 C-35.34216938 60.23677937 -35.34072337 55.92630042 -35.33201305 51.61571905 C-35.33047965 50.0605607 -35.33228816 48.50539449 -35.33787312 46.95024541 C-35.38711038 32.2611353 -34.71819602 19.96706081 -24.26992798 8.84140015 C-16.97832624 1.92195955 -9.85379754 0.00639063 0 0 Z M-21.60977173 18.70077515 C-26.83993309 27.41308638 -26.51304997 36.46673148 -26.47683716 46.27851868 C-26.48173034 47.92083403 -26.48792212 49.56314593 -26.49529505 51.20545202 C-26.51166317 55.70369018 -26.50938303 60.2017527 -26.50392008 64.70001018 C-26.50124607 69.55696112 -26.51578855 74.41386565 -26.52801514 79.27079773 C-26.54905469 88.78000843 -26.55361087 98.28915814 -26.55182725 107.79838937 C-26.55051904 115.52788338 -26.5543268 123.25735839 -26.56175232 130.98684883 C-26.56385153 133.21426902 -26.56594913 135.44168921 -26.56804514 137.6691094 C-26.56908867 138.77778848 -26.57013219 139.88646756 -26.57120734 141.02874298 C-26.59010331 161.98949707 -26.58906131 182.95021615 -26.58223802 203.91097523 C-26.57666138 223.0834198 -26.59749432 242.2557308 -26.63059849 261.42814415 C-26.66433556 281.12008497 -26.6795039 300.8119618 -26.67488146 320.50393206 C-26.67263701 331.55724065 -26.6778767 342.61042575 -26.70277405 353.66370964 C-26.72378718 363.07256158 -26.72737882 372.48122226 -26.70847446 381.89008205 C-26.69931729 386.68936806 -26.69817319 391.48829748 -26.71883011 396.28755569 C-26.73754357 400.6839323 -26.7330326 405.07966035 -26.71028429 409.4760123 C-26.70609952 411.06339483 -26.7102945 412.65082712 -26.72388023 414.23815703 C-26.80351631 424.22558808 -26.1949809 432.67129022 -19.09266806 440.28768295 C-11.66386435 447.39524508 -4.85866452 448.59935127 5.09416199 448.54830933 C6.77088998 448.55744598 6.77088998 448.55744598 8.48149127 448.56676722 C12.22306514 448.5834017 15.96429886 448.57862058 19.7059021 448.57382202 C22.39019436 448.58116211 25.07446124 448.58965556 27.75874329 448.5994873 C34.29104856 448.62051813 40.82326503 448.62508349 47.35560016 448.62329942 C52.66714351 448.62199052 57.97865922 448.62580245 63.29019737 448.63322449 C64.82163753 448.63532374 66.35307769 448.63742134 67.88451785 448.63951731 C68.64682346 448.64056084 69.40912908 448.64160436 70.19453486 448.64267951 C84.60468236 448.66157267 99.01477894 448.66053463 113.42493369 448.65371019 C126.59659396 448.64813632 139.76805962 448.66895505 152.93967441 448.70207065 C166.4752496 448.73583624 180.01073163 448.75097236 193.5463497 448.74635363 C201.14115357 448.74411171 208.73577762 448.74931117 216.33054543 448.77424622 C222.79701036 448.79529658 229.2631969 448.79881464 235.72967342 448.77994663 C239.02628477 448.77081113 242.32227193 448.77230719 245.61886215 448.79030228 C249.19972325 448.80849787 252.77921111 448.79574073 256.36003113 448.77536011 C257.39224771 448.78787796 258.42446429 448.8003958 259.48796016 448.81329298 C267.47826828 448.71605172 274.07600474 446.65335848 280.069691 441.1934371 C287.84903888 433.12365279 288.35792329 424.74940051 288.30525208 414.02133179 C288.31063761 412.70523705 288.31602315 411.38914232 288.32157189 410.03316593 C288.33599184 406.39530725 288.33179269 402.75767579 288.32440507 399.11980486 C288.31966719 395.19062724 288.33218864 391.26149834 288.34242249 387.33233643 C288.35960296 379.64111104 288.36045216 371.94996738 288.35520958 364.25872779 C288.35116569 358.00707149 288.35261403 351.75543932 288.35795784 345.50378418 C288.35870626 344.61351156 288.35945468 343.72323895 288.36022579 342.80598837 C288.36175728 340.99733249 288.36329563 339.18867661 288.36484075 337.38002074 C288.37856277 320.42618095 288.37312993 303.47238734 288.36165554 286.51854861 C288.35172073 271.01121887 288.36466864 255.50400841 288.38858973 239.99669707 C288.41297589 224.06773795 288.42258996 208.1388344 288.41593701 192.20985699 C288.41244406 183.26930459 288.41468196 174.32884395 288.43218803 165.38830566 C288.44690384 157.77852822 288.44755348 150.16890717 288.43011712 142.55913281 C288.4216001 138.67757741 288.41947458 134.79630148 288.43476868 130.91476059 C288.4511502 126.70510296 288.43647975 122.49612064 288.41877747 118.28646851 C288.42838247 117.06234284 288.43798748 115.83821718 288.44788355 114.5769968 C288.36985494 105.5718676 286.67130771 99.41536084 280.21876526 92.94715881 C279.49976547 92.21687973 278.78076569 91.48660065 278.03997803 90.73419189 C276.87180038 89.57815964 276.87180038 89.57815964 275.68002319 88.39877319 C274.43780251 87.14603859 274.43780251 87.14603859 273.17048645 85.86799622 C270.44378028 83.12375577 267.70278714 80.39432395 264.96054077 77.6656189 C263.05339695 75.75758312 261.14865252 73.8471571 259.24357605 71.9370575 C255.25526896 67.94149206 251.25864524 63.95439171 247.25717163 59.97201538 C242.64054953 55.37717346 238.03853375 50.76807925 233.44380969 46.15134782 C229.48669232 42.17604246 225.52178815 38.20863009 221.55034429 34.24763709 C219.1834736 31.88698082 216.82019646 29.52303011 214.46227074 27.15341759 C211.83218017 24.51315558 209.18958368 21.88607736 206.54330444 19.26205444 C205.77059204 18.48124512 204.99787964 17.70043579 204.20175171 16.89596558 C203.11056282 15.82169563 203.11056282 15.82169563 201.99732971 14.72572327 C201.37478396 14.10468562 200.75223822 13.48364798 200.11082745 12.84379101 C194.69183232 8.668486 189.3366601 7.71140481 182.66419983 7.75949097 C181.45912213 7.75035431 181.45912213 7.75035431 180.22969943 7.74103308 C177.55218746 7.72445593 174.87515381 7.72917128 172.19760132 7.73397827 C170.27192696 7.72663481 168.34625701 7.71804778 166.42059326 7.70831299 C161.19938941 7.68611602 155.97834347 7.68316545 150.75709891 7.6850605 C146.39343965 7.6851803 142.02981372 7.67661218 137.66616374 7.66828299 C127.36786375 7.64905496 117.06964481 7.64616272 106.77133179 7.65292358 C96.15974174 7.65956217 85.54849947 7.63670582 74.93697995 7.59960985 C65.81571856 7.56888462 56.69456888 7.55755595 47.57325679 7.56144667 C42.13023546 7.56351145 36.68748473 7.5580767 31.24451256 7.53355408 C26.12338114 7.51124334 21.00281385 7.51320094 15.88167953 7.5334816 C14.00724026 7.53688411 12.1327627 7.5318354 10.25837517 7.51749802 C-2.88411317 7.42394409 -12.41546632 8.3091769 -21.60977173 18.70077515 Z " fill="#000000" transform="translate(125.08242797851563,27.846099853515625)"/>
<path d="M0 0 C0.88126556 -0.00953201 1.76253113 -0.01906403 2.67050171 -0.02888489 C4.08778061 -0.02751778 4.08778061 -0.02751778 5.53369141 -0.02612305 C7.00208969 -0.03255074 7.00208969 -0.03255074 8.50015259 -0.03910828 C10.56959256 -0.04484716 12.63905271 -0.04535509 14.70849609 -0.04101562 C17.86672609 -0.03786031 21.024015 -0.06130453 24.18212891 -0.08666992 C26.19514856 -0.08894349 28.20817073 -0.08964614 30.22119141 -0.08862305 C31.16199554 -0.09783279 32.10279968 -0.10704254 33.07211304 -0.11653137 C39.17399091 -0.0737096 43.63408946 0.68119368 48.33837891 4.9230957 C48.80759766 5.49286133 49.27681641 6.06262695 49.76025391 6.6496582 C50.23978516 7.21426758 50.71931641 7.77887695 51.21337891 8.3605957 C54.81497065 13.67619797 54.84386153 18.66900883 54.88134766 24.88793945 C54.89037613 25.81632126 54.8994046 26.74470306 54.90870667 27.70121765 C54.92318634 29.66210722 54.93209022 31.62304484 54.93579102 33.58398438 C54.94767361 36.56700077 54.99686953 39.54793814 55.04736328 42.53051758 C55.05683016 44.44131484 55.06406393 46.35212473 55.06884766 48.26293945 C55.08837997 49.14653641 55.10791229 50.03013336 55.1280365 50.94050598 C55.07709255 58.01622826 52.83830794 62.57131399 48.13816833 67.8014679 C42.43043418 73.14375809 35.0258334 73.58483147 27.57275391 73.5402832 C26.84838135 73.54219666 26.12400879 73.54411011 25.37768555 73.54608154 C23.85839487 73.54743206 22.33909219 73.54381559 20.81982422 73.53540039 C18.51584552 73.52468421 16.21264633 73.53533413 13.90869141 73.5480957 C12.42171055 73.54677391 10.93473017 73.5442111 9.44775391 73.5402832 C8.43177124 73.5463559 8.43177124 73.5463559 7.39526367 73.55255127 C-0.14633961 73.47988405 -6.492297 72.04535634 -12.48974609 67.2746582 C-18.1518851 61.29795591 -18.80891999 55.1577258 -18.86083984 47.2902832 C-18.86986832 46.43464783 -18.87889679 45.57901245 -18.88819885 44.69744873 C-18.90265748 42.89216586 -18.91157714 41.08683111 -18.9152832 39.28149414 C-18.9271512 36.54652573 -18.9763536 33.81383695 -19.02685547 31.0793457 C-19.18814844 13.65053952 -19.18814844 13.65053952 -13.48974609 6.2746582 C-9.4776379 2.36040631 -5.64934877 0.03369678 0 0 Z M6.51025391 25.2746582 C6.51025391 32.8646582 6.51025391 40.4546582 6.51025391 48.2746582 C14.10025391 48.2746582 21.69025391 48.2746582 29.51025391 48.2746582 C29.51025391 40.6846582 29.51025391 33.0946582 29.51025391 25.2746582 C21.92025391 25.2746582 14.33025391 25.2746582 6.51025391 25.2746582 Z " fill="#221E1F" transform="translate(166.48974609375,157.725341796875)"/>
<path d="M0 0 C0.88126556 -0.00953201 1.76253113 -0.01906403 2.67050171 -0.02888489 C4.08778061 -0.02751778 4.08778061 -0.02751778 5.53369141 -0.02612305 C7.00208969 -0.03255074 7.00208969 -0.03255074 8.50015259 -0.03910828 C10.56959256 -0.04484716 12.63905271 -0.04535509 14.70849609 -0.04101562 C17.86672609 -0.03786031 21.024015 -0.06130453 24.18212891 -0.08666992 C26.19514856 -0.08894349 28.20817073 -0.08964614 30.22119141 -0.08862305 C31.16199554 -0.09783279 32.10279968 -0.10704254 33.07211304 -0.11653137 C39.17399091 -0.0737096 43.63408946 0.68119368 48.33837891 4.9230957 C48.80759766 5.49286133 49.27681641 6.06262695 49.76025391 6.6496582 C50.23978516 7.21426758 50.71931641 7.77887695 51.21337891 8.3605957 C54.81497065 13.67619797 54.84386153 18.66900883 54.88134766 24.88793945 C54.89037613 25.81632126 54.8994046 26.74470306 54.90870667 27.70121765 C54.92318634 29.66210722 54.93209022 31.62304484 54.93579102 33.58398438 C54.94767361 36.56700077 54.99686953 39.54793814 55.04736328 42.53051758 C55.05683016 44.44131484 55.06406393 46.35212473 55.06884766 48.26293945 C55.08837997 49.14653641 55.10791229 50.03013336 55.1280365 50.94050598 C55.07735453 57.97984062 52.93214563 62.82377911 47.96116638 67.83686829 C44.13941966 71.17208507 41.15546792 72.38404353 36.16577148 72.4675293 C35.29088577 72.48359222 34.41600006 72.49965515 33.51460266 72.51620483 C29.50884936 72.56087445 25.50325899 72.60173498 21.49731445 72.62475586 C19.38978003 72.64128808 17.28230105 72.66854178 15.17504883 72.70678711 C12.1263336 72.76179648 9.0789311 72.7834685 6.02978516 72.7980957 C5.09616653 72.82076508 4.16254791 72.84343445 3.20063782 72.86679077 C-3.28220252 72.84604592 -7.44746382 71.38261179 -12.48974609 67.2746582 C-18.22611038 61.38733696 -18.80431908 55.08570363 -18.82568359 47.25512695 C-18.83234039 46.3971199 -18.83899719 45.53911285 -18.84585571 44.65510559 C-18.85594607 42.84561291 -18.86067386 41.03608329 -18.86035156 39.2265625 C-18.86471631 36.48089172 -18.90104991 33.7368411 -18.93896484 30.99145508 C-18.94483575 29.22518447 -18.94880331 27.45890631 -18.95068359 25.69262695 C-18.97224014 24.47811104 -18.97224014 24.47811104 -18.99423218 23.23905945 C-18.9435204 16.80426548 -17.47659173 10.56765724 -13.04232788 5.67887878 C-8.96613496 2.15628694 -5.39504803 0.03217995 0 0 Z M6.51025391 24.2746582 C6.51025391 32.1946582 6.51025391 40.1146582 6.51025391 48.2746582 C14.10025391 48.2746582 21.69025391 48.2746582 29.51025391 48.2746582 C29.51025391 40.3546582 29.51025391 32.4346582 29.51025391 24.2746582 C21.92025391 24.2746582 14.33025391 24.2746582 6.51025391 24.2746582 Z " fill="#221E1F" transform="translate(166.48974609375,256.725341796875)"/>
<path d="M0 0 C0.88126556 -0.00953201 1.76253113 -0.01906403 2.67050171 -0.02888489 C4.08778061 -0.02751778 4.08778061 -0.02751778 5.53369141 -0.02612305 C7.00208969 -0.03255074 7.00208969 -0.03255074 8.50015259 -0.03910828 C10.56959256 -0.04484716 12.63905271 -0.04535509 14.70849609 -0.04101562 C17.86672609 -0.03786031 21.024015 -0.06130453 24.18212891 -0.08666992 C26.19514856 -0.08894349 28.20817073 -0.08964614 30.22119141 -0.08862305 C31.16199554 -0.09783279 32.10279968 -0.10704254 33.07211304 -0.11653137 C39.17399091 -0.0737096 43.63408946 0.68119368 48.33837891 4.9230957 C48.80759766 5.49286133 49.27681641 6.06262695 49.76025391 6.6496582 C50.23978516 7.21426758 50.71931641 7.77887695 51.21337891 8.3605957 C54.77936192 13.62364293 54.83040494 18.51393186 54.84619141 24.66918945 C54.85617661 26.02846809 54.85617661 26.02846809 54.86636353 27.41520691 C54.87646829 29.32903012 54.88118122 31.24288842 54.88085938 33.15673828 C54.88522381 36.06708666 54.92154187 38.97590684 54.95947266 41.88598633 C54.96534323 43.75121556 54.96931101 45.61645194 54.97119141 47.48168945 C54.98556244 48.34341263 54.99993347 49.2051358 55.01473999 50.0929718 C54.9639246 56.89886556 53.23948276 62.18153217 48.69384766 67.33325195 C48.11763672 67.78829102 47.54142578 68.24333008 46.94775391 68.7121582 C46.36896484 69.18524414 45.79017578 69.65833008 45.19384766 70.14575195 C42.24420796 72.1235846 39.61284749 72.40985409 36.16577148 72.4675293 C35.29088577 72.48359222 34.41600006 72.49965515 33.51460266 72.51620483 C29.50884936 72.56087445 25.50325899 72.60173498 21.49731445 72.62475586 C19.38978003 72.64128808 17.28230105 72.66854178 15.17504883 72.70678711 C12.1263336 72.76179648 9.0789311 72.7834685 6.02978516 72.7980957 C5.09616653 72.82076508 4.16254791 72.84343445 3.20063782 72.86679077 C-3.28220252 72.84604592 -7.44746382 71.38261179 -12.48974609 67.2746582 C-18.22611038 61.38733696 -18.80431908 55.08570363 -18.82568359 47.25512695 C-18.83234039 46.3971199 -18.83899719 45.53911285 -18.84585571 44.65510559 C-18.85594607 42.84561291 -18.86067386 41.03608329 -18.86035156 39.2265625 C-18.86471631 36.48089172 -18.90104991 33.7368411 -18.93896484 30.99145508 C-18.94483575 29.22518447 -18.94880331 27.45890631 -18.95068359 25.69262695 C-18.97224014 24.47811104 -18.97224014 24.47811104 -18.99423218 23.23905945 C-18.9435204 16.80426548 -17.47659173 10.56765724 -13.04232788 5.67887878 C-8.96613496 2.15628694 -5.39504803 0.03217995 0 0 Z M6.51025391 24.2746582 C6.51025391 32.1946582 6.51025391 40.1146582 6.51025391 48.2746582 C14.10025391 48.2746582 21.69025391 48.2746582 29.51025391 48.2746582 C29.51025391 40.3546582 29.51025391 32.4346582 29.51025391 24.2746582 C21.92025391 24.2746582 14.33025391 24.2746582 6.51025391 24.2746582 Z " fill="#221E1F" transform="translate(166.48974609375,355.725341796875)"/>
<path d="M0 0 C1.39836594 -0.01062721 1.39836594 -0.01062721 2.82498169 -0.02146912 C3.84067734 -0.0189917 4.85637299 -0.01651428 5.90284729 -0.01396179 C6.97804626 -0.01907272 8.05324524 -0.02418365 9.161026 -0.02944946 C12.71898447 -0.04336166 16.2767496 -0.04238748 19.83473206 -0.04008484 C22.30568514 -0.04397078 24.77663756 -0.04830524 27.24758911 -0.05307007 C32.42843287 -0.06053573 37.60920848 -0.0602384 42.79005432 -0.05497742 C49.43261832 -0.04918147 56.07490362 -0.06611543 62.71742153 -0.08932209 C67.82089878 -0.10404601 72.9243087 -0.10493296 78.02780342 -0.10181236 C80.47704178 -0.10232622 82.92628384 -0.10757595 85.37550163 -0.11762428 C88.79886421 -0.12994543 92.2216811 -0.12322258 95.64503479 -0.11161804 C96.65870621 -0.11926178 97.67237762 -0.12690552 98.71676636 -0.13478088 C107.38290314 -0.06977249 107.38290314 -0.06977249 111.33863831 3.26069641 C114.42385093 7.57999408 114.77278006 11.05029104 113.97535706 16.14350891 C112.94210999 19.57921387 111.18793549 21.17121181 108.33863831 23.26069641 C102.99396146 25.59455997 98.0201618 25.54433987 92.29762268 25.51948547 C90.80383842 25.52474243 90.80383842 25.52474243 89.27987671 25.53010559 C85.99730908 25.5388877 82.71495803 25.5330861 79.43238831 25.52632141 C77.14605162 25.52766907 74.85971522 25.52961045 72.57337952 25.53211975 C67.78530647 25.53506625 62.99730813 25.53078855 58.20924377 25.5214386 C52.07581893 25.51004442 45.94256913 25.51660642 39.8091507 25.52858353 C35.08909286 25.53581488 30.36907643 25.53350831 25.64901733 25.52832794 C23.38761372 25.52699498 21.12620633 25.52862678 18.86480713 25.53328705 C15.70298825 25.53837314 12.54145181 25.53061254 9.37965393 25.51948547 C8.44752579 25.52353394 7.51539764 25.5275824 6.55502319 25.53175354 C0.38690513 25.49159582 -4.35735284 24.9503029 -9.47386169 21.19819641 C-12.38341881 17.29107685 -13.09145081 14.09919901 -12.66136169 9.26069641 C-11.49918235 5.84518046 -9.93452038 3.06800706 -6.80816555 1.08558369 C-4.38987739 0.15638136 -2.5868758 0.00656941 0 0 Z " fill="#000000" transform="translate(249.66136169433594,181.7393035888672)"/>
<path d="M0 0 C1.39424194 -0.00856522 1.39424194 -0.00856522 2.81665039 -0.01730347 C3.83953659 -0.01842133 4.86242279 -0.01953918 5.91630554 -0.02069092 C6.99121246 -0.02565582 8.06611938 -0.03062073 9.17359924 -0.03573608 C12.74238212 -0.05038419 16.31112054 -0.05716425 19.87992859 -0.06268311 C22.35373944 -0.06843253 24.82755027 -0.07419028 27.30136108 -0.07995605 C32.49413766 -0.09047369 37.68689871 -0.09631132 42.87968445 -0.09979248 C49.53798815 -0.10449149 56.19605834 -0.12930341 62.85430622 -0.15776443 C67.9663554 -0.17637618 73.07835521 -0.18159565 78.19043541 -0.18312836 C80.64526169 -0.18615889 83.10008702 -0.19420081 85.55488014 -0.20731354 C88.98801401 -0.22434249 92.42064674 -0.22250119 95.85380554 -0.21600342 C96.87061905 -0.2252182 97.88743256 -0.23443298 98.93505859 -0.243927 C107.62710975 -0.19231748 107.62710975 -0.19231748 111.57914734 3.14044189 C114.6673037 7.4638608 114.99184821 10.92190077 114.23539734 16.01934814 C113.21903788 19.30436711 111.20989316 21.03584524 108.57914734 23.14044189 C108.08414734 23.63544189 108.08414734 23.63544189 107.57914734 24.14044189 C106.12329032 24.24689331 104.6623319 24.28449328 103.20262146 24.29434204 C101.78519905 24.30724274 101.78519905 24.30724274 100.33914185 24.32040405 C98.77136742 24.32679398 98.77136742 24.32679398 97.17192078 24.33331299 C96.07765274 24.34149048 94.9833847 24.34966797 93.85595703 24.35809326 C90.2168178 24.38300612 86.57771774 24.3994786 82.93852234 24.41387939 C81.69900063 24.41920307 80.45947891 24.42452675 79.18239594 24.43001175 C73.97359434 24.45125487 68.76479867 24.4703842 63.55596542 24.48163414 C56.08874814 24.49786666 48.62205183 24.53101744 41.15503097 24.58803499 C35.27375667 24.63141279 29.39259859 24.64738025 23.5111618 24.65376663 C21.00886071 24.66049648 18.5065677 24.67576312 16.00437164 24.69965744 C12.5038267 24.73117693 9.00460085 24.73136482 5.50395203 24.72393799 C3.94832298 24.74854599 3.94832298 24.74854599 2.36126709 24.77365112 C-4.68484961 24.71235505 -4.68484961 24.71235505 -8.52137756 21.73117065 C-12.0575235 16.90815666 -12.8363594 14.24135761 -12.03804016 8.33184814 C-11.08531216 4.94906074 -9.13406292 3.25806941 -6.42085266 1.14044189 C-4.05834805 -0.04081041 -2.63512377 0.00967473 0 0 Z " fill="#000000" transform="translate(249.4208526611328,280.85955810546875)"/>
<path d="M0 0 C1.39424194 -0.00856522 1.39424194 -0.00856522 2.81665039 -0.01730347 C3.83953659 -0.01842133 4.86242279 -0.01953918 5.91630554 -0.02069092 C6.99121246 -0.02565582 8.06611938 -0.03062073 9.17359924 -0.03573608 C12.74238212 -0.05038419 16.31112054 -0.05716425 19.87992859 -0.06268311 C22.35373944 -0.06843253 24.82755027 -0.07419028 27.30136108 -0.07995605 C32.49413766 -0.09047369 37.68689871 -0.09631132 42.87968445 -0.09979248 C49.53798815 -0.10449149 56.19605834 -0.12930341 62.85430622 -0.15776443 C67.9663554 -0.17637618 73.07835521 -0.18159565 78.19043541 -0.18312836 C80.64526169 -0.18615889 83.10008702 -0.19420081 85.55488014 -0.20731354 C88.98801401 -0.22434249 92.42064674 -0.22250119 95.85380554 -0.21600342 C96.87061905 -0.2252182 97.88743256 -0.23443298 98.93505859 -0.243927 C107.62710975 -0.19231748 107.62710975 -0.19231748 111.57914734 3.14044189 C114.66645431 7.46267165 114.99635925 10.92309176 114.23149109 16.01934814 C113.21205767 19.33403285 111.25929515 21.04861921 108.57914734 23.14044189 C106.21664272 24.3216942 104.79341845 24.27120906 102.15829468 24.28088379 C100.76405273 24.28944901 100.76405273 24.28944901 99.34164429 24.29818726 C97.80731499 24.29986404 97.80731499 24.29986404 96.24198914 24.30157471 C95.16708221 24.30653961 94.09217529 24.31150452 92.98469543 24.31661987 C89.41591256 24.33126798 85.84717413 24.33804804 82.27836609 24.34356689 C79.80455524 24.34931631 77.33074441 24.35507407 74.85693359 24.36083984 C69.66415702 24.37135748 64.47139596 24.3771951 59.27861023 24.38067627 C52.62030653 24.38537528 45.96223634 24.4101872 39.30398846 24.43864822 C34.19193928 24.45725997 29.07993947 24.46247944 23.96785927 24.46401215 C21.51303299 24.46704268 19.05820766 24.4750846 16.60341454 24.48819733 C13.17028067 24.50522628 9.73764794 24.50338498 6.30448914 24.49688721 C4.77926888 24.51070938 4.77926888 24.51070938 3.22323608 24.52481079 C-5.46881508 24.47320127 -5.46881508 24.47320127 -9.42085266 21.14044189 C-12.50815963 16.81821214 -12.83806457 13.35779203 -12.07319641 8.26153564 C-11.05376299 4.94685094 -9.10100048 3.23226458 -6.42085266 1.14044189 C-4.05834805 -0.04081041 -2.63512377 0.00967473 0 0 Z " fill="#000000" transform="translate(249.4208526611328,379.85955810546875)"/>
<path d="M0 0 C0.88126556 -0.00953201 1.76253113 -0.01906403 2.67050171 -0.02888489 C4.08778061 -0.02751778 4.08778061 -0.02751778 5.53369141 -0.02612305 C7.00208969 -0.03255074 7.00208969 -0.03255074 8.50015259 -0.03910828 C10.56959256 -0.04484716 12.63905271 -0.04535509 14.70849609 -0.04101562 C17.86672609 -0.03786031 21.024015 -0.06130453 24.18212891 -0.08666992 C26.19514856 -0.08894349 28.20817073 -0.08964614 30.22119141 -0.08862305 C31.16199554 -0.09783279 32.10279968 -0.10704254 33.07211304 -0.11653137 C39.17399091 -0.0737096 43.63408946 0.68119368 48.33837891 4.9230957 C48.80759766 5.49286133 49.27681641 6.06262695 49.76025391 6.6496582 C50.23978516 7.21426758 50.71931641 7.77887695 51.21337891 8.3605957 C54.81497065 13.67619797 54.84386153 18.66900883 54.88134766 24.88793945 C54.89037613 25.81632126 54.8994046 26.74470306 54.90870667 27.70121765 C54.92318634 29.66210722 54.93209022 31.62304484 54.93579102 33.58398438 C54.94767361 36.56700077 54.99686953 39.54793814 55.04736328 42.53051758 C55.05683016 44.44131484 55.06406393 46.35212473 55.06884766 48.26293945 C55.08837997 49.14653641 55.10791229 50.03013336 55.1280365 50.94050598 C55.07709255 58.01622826 52.83830794 62.57131399 48.13816833 67.8014679 C42.43043418 73.14375809 35.0258334 73.58483147 27.57275391 73.5402832 C26.84838135 73.54219666 26.12400879 73.54411011 25.37768555 73.54608154 C23.85839487 73.54743206 22.33909219 73.54381559 20.81982422 73.53540039 C18.51584552 73.52468421 16.21264633 73.53533413 13.90869141 73.5480957 C12.42171055 73.54677391 10.93473017 73.5442111 9.44775391 73.5402832 C8.43177124 73.5463559 8.43177124 73.5463559 7.39526367 73.55255127 C-0.14633961 73.47988405 -6.492297 72.04535634 -12.48974609 67.2746582 C-18.1518851 61.29795591 -18.80891999 55.1577258 -18.86083984 47.2902832 C-18.86986832 46.43464783 -18.87889679 45.57901245 -18.88819885 44.69744873 C-18.90265748 42.89216586 -18.91157714 41.08683111 -18.9152832 39.28149414 C-18.9271512 36.54652573 -18.9763536 33.81383695 -19.02685547 31.0793457 C-19.18814844 13.65053952 -19.18814844 13.65053952 -13.48974609 6.2746582 C-9.4776379 2.36040631 -5.64934877 0.03369678 0 0 Z M-7.48974609 12.2746582 C-9.50303636 15.2945936 -9.74357968 15.89712891 -9.78027344 19.28369141 C-9.79303314 20.08494949 -9.80579285 20.88620758 -9.81893921 21.71174622 C-9.82116486 22.57426498 -9.8233905 23.43678375 -9.82568359 24.32543945 C-9.83234039 25.21700241 -9.83899719 26.10856537 -9.84585571 27.02714539 C-9.85598178 28.9142348 -9.86067275 30.80136001 -9.86035156 32.68847656 C-9.8647142 35.56611756 -9.90100419 38.44221156 -9.93896484 41.31958008 C-9.94483524 43.1548613 -9.94880314 44.9901498 -9.95068359 46.82543945 C-9.96505463 47.68188553 -9.97942566 48.5383316 -9.99423218 49.42073059 C-9.95316648 54.83128714 -9.19351101 58.04858834 -5.48974609 62.2746582 C-1.84529199 65.17632691 2.80453632 64.58040723 7.25634766 64.57543945 C8.10447525 64.57972458 8.95260284 64.5840097 9.82643127 64.58842468 C11.61759551 64.59415955 13.40878302 64.59467445 15.19995117 64.59033203 C17.93465056 64.58717334 20.66826641 64.61063665 23.40283203 64.63598633 C25.14566921 64.6382596 26.88850929 64.63896269 28.63134766 64.63793945 C29.4460704 64.6471492 30.26079315 64.65635895 31.10020447 64.66584778 C35.71399317 64.62840473 38.84530665 64.36730138 42.51025391 61.2746582 C46.67922931 56.43764646 47.10471351 52.68735627 47.04150391 46.5871582 C47.04533081 45.76642822 47.04915771 44.94569824 47.05310059 44.10009766 C47.05581156 42.37213915 47.04850755 40.64413903 47.03173828 38.91625977 C47.01031512 36.28218471 47.03156572 33.65083666 47.05712891 31.0168457 C47.05448548 29.33194389 47.0493602 27.64704377 47.04150391 25.9621582 C47.04960083 25.18074463 47.05769775 24.39933105 47.06604004 23.59423828 C46.97774517 18.40543384 46.07151306 15.29629698 42.51025391 11.2746582 C37.70365731 7.99353179 33.44119808 7.81995691 27.82275391 7.84106445 C27.00202393 7.8358226 26.18129395 7.83058075 25.33569336 7.82518005 C23.60775886 7.81878265 21.87978068 7.82006718 20.15185547 7.82861328 C17.51792507 7.83713339 14.88615852 7.80831621 12.25244141 7.77661133 C10.56754622 7.77499925 8.88264722 7.77557698 7.19775391 7.77856445 C6.41634033 7.76733047 5.63492676 7.7560965 4.82983398 7.74452209 C-0.38291147 7.81051742 -3.35969146 8.82526594 -7.48974609 12.2746582 Z " fill="#000000" transform="translate(166.48974609375,157.725341796875)"/>
<path d="M0 0 C0.88126556 -0.00953201 1.76253113 -0.01906403 2.67050171 -0.02888489 C4.08778061 -0.02751778 4.08778061 -0.02751778 5.53369141 -0.02612305 C7.00208969 -0.03255074 7.00208969 -0.03255074 8.50015259 -0.03910828 C10.56959256 -0.04484716 12.63905271 -0.04535509 14.70849609 -0.04101562 C17.86672609 -0.03786031 21.024015 -0.06130453 24.18212891 -0.08666992 C26.19514856 -0.08894349 28.20817073 -0.08964614 30.22119141 -0.08862305 C31.16199554 -0.09783279 32.10279968 -0.10704254 33.07211304 -0.11653137 C39.17399091 -0.0737096 43.63408946 0.68119368 48.33837891 4.9230957 C48.80759766 5.49286133 49.27681641 6.06262695 49.76025391 6.6496582 C50.23978516 7.21426758 50.71931641 7.77887695 51.21337891 8.3605957 C54.81497065 13.67619797 54.84386153 18.66900883 54.88134766 24.88793945 C54.89037613 25.81632126 54.8994046 26.74470306 54.90870667 27.70121765 C54.92318634 29.66210722 54.93209022 31.62304484 54.93579102 33.58398438 C54.94767361 36.56700077 54.99686953 39.54793814 55.04736328 42.53051758 C55.05683016 44.44131484 55.06406393 46.35212473 55.06884766 48.26293945 C55.08837997 49.14653641 55.10791229 50.03013336 55.1280365 50.94050598 C55.07735453 57.97984062 52.93214563 62.82377911 47.96116638 67.83686829 C44.13941966 71.17208507 41.15546792 72.38404353 36.16577148 72.4675293 C35.29088577 72.48359222 34.41600006 72.49965515 33.51460266 72.51620483 C29.50884936 72.56087445 25.50325899 72.60173498 21.49731445 72.62475586 C19.38978003 72.64128808 17.28230105 72.66854178 15.17504883 72.70678711 C12.1263336 72.76179648 9.0789311 72.7834685 6.02978516 72.7980957 C5.09616653 72.82076508 4.16254791 72.84343445 3.20063782 72.86679077 C-3.28220252 72.84604592 -7.44746382 71.38261179 -12.48974609 67.2746582 C-18.22611038 61.38733696 -18.80431908 55.08570363 -18.82568359 47.25512695 C-18.83234039 46.3971199 -18.83899719 45.53911285 -18.84585571 44.65510559 C-18.85594607 42.84561291 -18.86067386 41.03608329 -18.86035156 39.2265625 C-18.86471631 36.48089172 -18.90104991 33.7368411 -18.93896484 30.99145508 C-18.94483575 29.22518447 -18.94880331 27.45890631 -18.95068359 25.69262695 C-18.97224014 24.47811104 -18.97224014 24.47811104 -18.99423218 23.23905945 C-18.9435204 16.80426548 -17.47659173 10.56765724 -13.04232788 5.67887878 C-8.96613496 2.15628694 -5.39504803 0.03217995 0 0 Z M-7.48974609 12.2746582 C-9.50303636 15.2945936 -9.74357968 15.89712891 -9.78027344 19.28369141 C-9.79303314 20.08494949 -9.80579285 20.88620758 -9.81893921 21.71174622 C-9.82116486 22.57426498 -9.8233905 23.43678375 -9.82568359 24.32543945 C-9.83234039 25.21700241 -9.83899719 26.10856537 -9.84585571 27.02714539 C-9.85598178 28.9142348 -9.86067275 30.80136001 -9.86035156 32.68847656 C-9.8647142 35.56611756 -9.90100419 38.44221156 -9.93896484 41.31958008 C-9.94483524 43.1548613 -9.94880314 44.9901498 -9.95068359 46.82543945 C-9.96505463 47.68188553 -9.97942566 48.5383316 -9.99423218 49.42073059 C-9.95316648 54.83128714 -9.19351101 58.04858834 -5.48974609 62.2746582 C-1.84497835 65.18679082 2.98011198 64.61712574 7.43994141 64.64575195 C8.74186935 64.65929466 8.74186935 64.65929466 10.07009888 64.67311096 C11.90411945 64.68760032 13.73819155 64.69649693 15.57226562 64.70019531 C18.36889307 64.71208862 21.16331086 64.76128201 23.95947266 64.81176758 C25.74461818 64.82123288 27.5297772 64.8284674 29.31494141 64.83325195 C30.56209427 64.86255043 30.56209427 64.86255043 31.83444214 64.8924408 C35.94047361 64.86075011 38.67629785 64.57963475 41.95996094 61.98974609 C46.6028393 57.04685406 46.8274339 53.45513395 46.84619141 46.7824707 C46.85284821 45.95891083 46.859505 45.13535095 46.86636353 44.28683472 C46.87647394 42.5469587 46.88118104 40.80704403 46.88085938 39.06713867 C46.88522764 36.41560413 46.92154855 33.76574163 46.95947266 31.11450195 C46.96534231 29.4204972 46.96931071 27.72648458 46.97119141 26.0324707 C46.98556244 25.24478302 46.99993347 24.45709534 47.01473999 23.64553833 C46.97174827 18.42341631 46.1048349 15.31959045 42.51025391 11.2746582 C37.70365731 7.99353179 33.44119808 7.81995691 27.82275391 7.84106445 C27.00202393 7.8358226 26.18129395 7.83058075 25.33569336 7.82518005 C23.60775886 7.81878265 21.87978068 7.82006718 20.15185547 7.82861328 C17.51792507 7.83713339 14.88615852 7.80831621 12.25244141 7.77661133 C10.56754622 7.77499925 8.88264722 7.77557698 7.19775391 7.77856445 C6.41634033 7.76733047 5.63492676 7.7560965 4.82983398 7.74452209 C-0.38291147 7.81051742 -3.35969146 8.82526594 -7.48974609 12.2746582 Z " fill="#000000" transform="translate(166.48974609375,256.725341796875)"/>
<path d="M0 0 C0.88126556 -0.00953201 1.76253113 -0.01906403 2.67050171 -0.02888489 C4.08778061 -0.02751778 4.08778061 -0.02751778 5.53369141 -0.02612305 C7.00208969 -0.03255074 7.00208969 -0.03255074 8.50015259 -0.03910828 C10.56959256 -0.04484716 12.63905271 -0.04535509 14.70849609 -0.04101562 C17.86672609 -0.03786031 21.024015 -0.06130453 24.18212891 -0.08666992 C26.19514856 -0.08894349 28.20817073 -0.08964614 30.22119141 -0.08862305 C31.16199554 -0.09783279 32.10279968 -0.10704254 33.07211304 -0.11653137 C39.17399091 -0.0737096 43.63408946 0.68119368 48.33837891 4.9230957 C48.80759766 5.49286133 49.27681641 6.06262695 49.76025391 6.6496582 C50.23978516 7.21426758 50.71931641 7.77887695 51.21337891 8.3605957 C54.77936192 13.62364293 54.83040494 18.51393186 54.84619141 24.66918945 C54.85617661 26.02846809 54.85617661 26.02846809 54.86636353 27.41520691 C54.87646829 29.32903012 54.88118122 31.24288842 54.88085938 33.15673828 C54.88522381 36.06708666 54.92154187 38.97590684 54.95947266 41.88598633 C54.96534323 43.75121556 54.96931101 45.61645194 54.97119141 47.48168945 C54.98556244 48.34341263 54.99993347 49.2051358 55.01473999 50.0929718 C54.9639246 56.89886556 53.23948276 62.18153217 48.69384766 67.33325195 C48.11763672 67.78829102 47.54142578 68.24333008 46.94775391 68.7121582 C46.36896484 69.18524414 45.79017578 69.65833008 45.19384766 70.14575195 C42.24420796 72.1235846 39.61284749 72.40985409 36.16577148 72.4675293 C35.29088577 72.48359222 34.41600006 72.49965515 33.51460266 72.51620483 C29.50884936 72.56087445 25.50325899 72.60173498 21.49731445 72.62475586 C19.38978003 72.64128808 17.28230105 72.66854178 15.17504883 72.70678711 C12.1263336 72.76179648 9.0789311 72.7834685 6.02978516 72.7980957 C5.09616653 72.82076508 4.16254791 72.84343445 3.20063782 72.86679077 C-3.28220252 72.84604592 -7.44746382 71.38261179 -12.48974609 67.2746582 C-18.22611038 61.38733696 -18.80431908 55.08570363 -18.82568359 47.25512695 C-18.83234039 46.3971199 -18.83899719 45.53911285 -18.84585571 44.65510559 C-18.85594607 42.84561291 -18.86067386 41.03608329 -18.86035156 39.2265625 C-18.86471631 36.48089172 -18.90104991 33.7368411 -18.93896484 30.99145508 C-18.94483575 29.22518447 -18.94880331 27.45890631 -18.95068359 25.69262695 C-18.97224014 24.47811104 -18.97224014 24.47811104 -18.99423218 23.23905945 C-18.9435204 16.80426548 -17.47659173 10.56765724 -13.04232788 5.67887878 C-8.96613496 2.15628694 -5.39504803 0.03217995 0 0 Z M-7.48974609 12.2746582 C-9.50303636 15.2945936 -9.74357968 15.89712891 -9.78027344 19.28369141 C-9.79303314 20.08494949 -9.80579285 20.88620758 -9.81893921 21.71174622 C-9.82116486 22.57426498 -9.8233905 23.43678375 -9.82568359 24.32543945 C-9.83234039 25.21700241 -9.83899719 26.10856537 -9.84585571 27.02714539 C-9.85598178 28.9142348 -9.86067275 30.80136001 -9.86035156 32.68847656 C-9.8647142 35.56611756 -9.90100419 38.44221156 -9.93896484 41.31958008 C-9.94483524 43.1548613 -9.94880314 44.9901498 -9.95068359 46.82543945 C-9.96505463 47.68188553 -9.97942566 48.5383316 -9.99423218 49.42073059 C-9.95316648 54.83128714 -9.19351101 58.04858834 -5.48974609 62.2746582 C-1.84497835 65.18679082 2.98011198 64.61712574 7.43994141 64.64575195 C8.74186935 64.65929466 8.74186935 64.65929466 10.07009888 64.67311096 C11.90411945 64.68760032 13.73819155 64.69649693 15.57226562 64.70019531 C18.36889307 64.71208862 21.16331086 64.76128201 23.95947266 64.81176758 C25.74461818 64.82123288 27.5297772 64.8284674 29.31494141 64.83325195 C30.56209427 64.86255043 30.56209427 64.86255043 31.83444214 64.8924408 C35.94047361 64.86075011 38.67629785 64.57963475 41.95996094 61.98974609 C46.6028393 57.04685406 46.8274339 53.45513395 46.84619141 46.7824707 C46.85284821 45.95891083 46.859505 45.13535095 46.86636353 44.28683472 C46.87647394 42.5469587 46.88118104 40.80704403 46.88085938 39.06713867 C46.88522764 36.41560413 46.92154855 33.76574163 46.95947266 31.11450195 C46.96534231 29.4204972 46.96931071 27.72648458 46.97119141 26.0324707 C46.98556244 25.24478302 46.99993347 24.45709534 47.01473999 23.64553833 C46.9635129 17.42308221 45.05249588 14.0513147 40.81835938 9.42675781 C37.17261418 7.60697025 33.60065302 7.82693908 29.58056641 7.84106445 C28.27863846 7.83320168 28.27863846 7.83320168 26.95040894 7.82518005 C25.11636422 7.81876429 23.28227833 7.82009111 21.44824219 7.82861328 C18.65175442 7.83710808 15.8573204 7.8083817 13.06103516 7.77661133 C11.27587952 7.77499871 9.49072028 7.775578 7.70556641 7.77856445 C6.87413116 7.76733047 6.04269592 7.7560965 5.18606567 7.74452209 C-0.16881966 7.80831394 -3.25773057 8.69612162 -7.48974609 12.2746582 Z " fill="#000000" transform="translate(166.48974609375,355.725341796875)"/>
<path d="M0 0 C13.2 0 26.4 0 40 0 C40 13.2 40 26.4 40 40 C26.8 40 13.6 40 0 40 C0 26.8 0 13.6 0 0 Z M8 9 C8 16.59 8 24.18 8 32 C15.59 32 23.18 32 31 32 C31 24.41 31 16.82 31 9 C23.41 9 15.82 9 8 9 Z " fill="#000000" transform="translate(165,174)"/>
<path d="M0 0 C13.2 0 26.4 0 40 0 C40 13.2 40 26.4 40 40 C26.8 40 13.6 40 0 40 C0 26.8 0 13.6 0 0 Z M8 8 C8 15.92 8 23.84 8 32 C15.59 32 23.18 32 31 32 C31 24.08 31 16.16 31 8 C23.41 8 15.82 8 8 8 Z " fill="#000000" transform="translate(165,372)"/>
<path d="M0 0 C13.2 0 26.4 0 40 0 C40 13.2 40 26.4 40 40 C26.8 40 13.6 40 0 40 C0 26.8 0 13.6 0 0 Z M8 8 C8 15.92 8 23.84 8 32 C15.59 32 23.18 32 31 32 C31 24.08 31 16.16 31 8 C23.41 8 15.82 8 8 8 Z " fill="#000000" transform="translate(165,273)"/>
<path d="M0 0 C1.32295578 -0.00639748 1.32295578 -0.00639748 2.67263794 -0.01292419 C4.13527321 -0.01224442 4.13527321 -0.01224442 5.62745667 -0.0115509 C6.64851501 -0.01490952 7.66957336 -0.01826813 8.72157288 -0.02172852 C12.11542458 -0.03127043 15.50922713 -0.03318323 18.90309143 -0.03425598 C21.25099712 -0.03746625 23.5989026 -0.04083014 25.94680786 -0.04434204 C30.87568119 -0.05034139 35.80453697 -0.05218111 40.7334137 -0.05158997 C47.0635377 -0.05148828 53.39354969 -0.06514322 59.72364712 -0.08236217 C64.57479372 -0.09345537 69.42591301 -0.09551 74.277071 -0.09498024 C76.61156157 -0.09616431 78.94605276 -0.10060978 81.28053093 -0.10831261 C84.53948288 -0.11805878 87.79818865 -0.1152558 91.05714417 -0.10920715 C92.03021011 -0.11482666 93.00327606 -0.12044617 94.00582886 -0.12623596 C94.8906192 -0.12204147 95.77540955 -0.11784698 96.68701172 -0.11352539 C97.45817542 -0.11407016 98.22933912 -0.11461493 99.02387142 -0.1151762 C100.90699768 0.13371277 100.90699768 0.13371277 102.90699768 2.13371277 C102.35144213 6.68926832 102.35144213 6.68926832 100.90699768 8.13371277 C99.54557833 8.23336958 98.17905408 8.26445763 96.81399536 8.26742554 C95.49103958 8.27382301 95.49103958 8.27382301 94.14135742 8.28034973 C93.16626724 8.27989655 92.19117706 8.27944336 91.1865387 8.27897644 C90.16548035 8.28233505 89.144422 8.28569366 88.09242249 8.28915405 C84.69857078 8.29869597 81.30476823 8.30060877 77.91090393 8.30168152 C75.56299824 8.30489179 73.21509276 8.30825568 70.8671875 8.31176758 C65.93831417 8.31776693 61.00945839 8.31960665 56.08058167 8.3190155 C49.75045766 8.31891382 43.42044567 8.33256876 37.09034824 8.34978771 C32.23920164 8.36088091 27.38808235 8.36293554 22.53692436 8.36240578 C20.20243379 8.36358985 17.8679426 8.36803532 15.53346443 8.37573814 C12.27451248 8.38548431 9.01580672 8.38268134 5.7568512 8.37663269 C4.29725227 8.38506195 4.29725227 8.38506195 2.8081665 8.3936615 C1.92337616 8.38946701 1.03858582 8.38527252 0.12698364 8.38095093 C-0.64418006 8.3814957 -1.41534376 8.38204046 -2.20987606 8.38260174 C-4.09300232 8.13371277 -4.09300232 8.13371277 -6.09300232 6.13371277 C-5.47384354 1.05661077 -5.04057442 0.01095922 0 0 Z " fill="#221E1F" transform="translate(252.09300231933594,387.8662872314453)"/>
<path d="M0 0 C1.32295578 -0.00639748 1.32295578 -0.00639748 2.67263794 -0.01292419 C4.13527321 -0.01224442 4.13527321 -0.01224442 5.62745667 -0.0115509 C6.64851501 -0.01490952 7.66957336 -0.01826813 8.72157288 -0.02172852 C12.11542458 -0.03127043 15.50922713 -0.03318323 18.90309143 -0.03425598 C21.25099712 -0.03746625 23.5989026 -0.04083014 25.94680786 -0.04434204 C30.87568119 -0.05034139 35.80453697 -0.05218111 40.7334137 -0.05158997 C47.0635377 -0.05148828 53.39354969 -0.06514322 59.72364712 -0.08236217 C64.57479372 -0.09345537 69.42591301 -0.09551 74.277071 -0.09498024 C76.61156157 -0.09616431 78.94605276 -0.10060978 81.28053093 -0.10831261 C84.53948288 -0.11805878 87.79818865 -0.1152558 91.05714417 -0.10920715 C92.03021011 -0.11482666 93.00327606 -0.12044617 94.00582886 -0.12623596 C94.8906192 -0.12204147 95.77540955 -0.11784698 96.68701172 -0.11352539 C97.45817542 -0.11407016 98.22933912 -0.11461493 99.02387142 -0.1151762 C100.90699768 0.13371277 100.90699768 0.13371277 102.90699768 2.13371277 C102.35144213 6.68926832 102.35144213 6.68926832 100.90699768 8.13371277 C99.54557833 8.23336958 98.17905408 8.26445763 96.81399536 8.26742554 C95.49103958 8.27382301 95.49103958 8.27382301 94.14135742 8.28034973 C93.16626724 8.27989655 92.19117706 8.27944336 91.1865387 8.27897644 C90.16548035 8.28233505 89.144422 8.28569366 88.09242249 8.28915405 C84.69857078 8.29869597 81.30476823 8.30060877 77.91090393 8.30168152 C75.56299824 8.30489179 73.21509276 8.30825568 70.8671875 8.31176758 C65.93831417 8.31776693 61.00945839 8.31960665 56.08058167 8.3190155 C49.75045766 8.31891382 43.42044567 8.33256876 37.09034824 8.34978771 C32.23920164 8.36088091 27.38808235 8.36293554 22.53692436 8.36240578 C20.20243379 8.36358985 17.8679426 8.36803532 15.53346443 8.37573814 C12.27451248 8.38548431 9.01580672 8.38268134 5.7568512 8.37663269 C4.29725227 8.38506195 4.29725227 8.38506195 2.8081665 8.3936615 C1.92337616 8.38946701 1.03858582 8.38527252 0.12698364 8.38095093 C-0.64418006 8.3814957 -1.41534376 8.38204046 -2.20987606 8.38260174 C-4.09300232 8.13371277 -4.09300232 8.13371277 -6.09300232 6.13371277 C-5.47384354 1.05661077 -5.04057442 0.01095922 0 0 Z " fill="#221E1F" transform="translate(252.09300231933594,288.8662872314453)"/>
<path d="M0 0 C1.32295578 -0.00639748 1.32295578 -0.00639748 2.67263794 -0.01292419 C4.13527321 -0.01224442 4.13527321 -0.01224442 5.62745667 -0.0115509 C6.64851501 -0.01490952 7.66957336 -0.01826813 8.72157288 -0.02172852 C12.11542458 -0.03127043 15.50922713 -0.03318323 18.90309143 -0.03425598 C21.25099712 -0.03746625 23.5989026 -0.04083014 25.94680786 -0.04434204 C30.87568119 -0.05034139 35.80453697 -0.05218111 40.7334137 -0.05158997 C47.0635377 -0.05148828 53.39354969 -0.06514322 59.72364712 -0.08236217 C64.57479372 -0.09345537 69.42591301 -0.09551 74.277071 -0.09498024 C76.61156157 -0.09616431 78.94605276 -0.10060978 81.28053093 -0.10831261 C84.53948288 -0.11805878 87.79818865 -0.1152558 91.05714417 -0.10920715 C92.03021011 -0.11482666 93.00327606 -0.12044617 94.00582886 -0.12623596 C94.8906192 -0.12204147 95.77540955 -0.11784698 96.68701172 -0.11352539 C97.45817542 -0.11407016 98.22933912 -0.11461493 99.02387142 -0.1151762 C100.90699768 0.13371277 100.90699768 0.13371277 102.90699768 2.13371277 C102.35144213 6.68926832 102.35144213 6.68926832 100.90699768 8.13371277 C99.54557833 8.23336958 98.17905408 8.26445763 96.81399536 8.26742554 C95.49103958 8.27382301 95.49103958 8.27382301 94.14135742 8.28034973 C93.16626724 8.27989655 92.19117706 8.27944336 91.1865387 8.27897644 C90.16548035 8.28233505 89.144422 8.28569366 88.09242249 8.28915405 C84.69857078 8.29869597 81.30476823 8.30060877 77.91090393 8.30168152 C75.56299824 8.30489179 73.21509276 8.30825568 70.8671875 8.31176758 C65.93831417 8.31776693 61.00945839 8.31960665 56.08058167 8.3190155 C49.75045766 8.31891382 43.42044567 8.33256876 37.09034824 8.34978771 C32.23920164 8.36088091 27.38808235 8.36293554 22.53692436 8.36240578 C20.20243379 8.36358985 17.8679426 8.36803532 15.53346443 8.37573814 C12.27451248 8.38548431 9.01580672 8.38268134 5.7568512 8.37663269 C4.29725227 8.38506195 4.29725227 8.38506195 2.8081665 8.3936615 C1.92337616 8.38946701 1.03858582 8.38527252 0.12698364 8.38095093 C-0.64418006 8.3814957 -1.41534376 8.38204046 -2.20987606 8.38260174 C-4.09300232 8.13371277 -4.09300232 8.13371277 -6.09300232 6.13371277 C-5.47384354 1.05661077 -5.04057442 0.01095922 0 0 Z " fill="#221E1F" transform="translate(252.09300231933594,189.8662872314453)"/>
</svg>
