<?xml version="1.0" encoding="UTF-8"?>
<svg version="1.1" xmlns="http://www.w3.org/2000/svg" width="512" height="512">
<path d="M0 0 C1.94693253 -0.00101212 1.94693253 -0.00101212 3.93319702 -0.00204468 C23.15597704 0.01383713 42.02155401 0.39248825 61.0625 3.25 C62.29581055 3.43224121 63.52912109 3.61448242 64.79980469 3.80224609 C111.90705852 10.95618962 158.96510672 24.8833429 195.0625 57.25 C196.07570313 58.12011719 196.07570313 58.12011719 197.109375 59.0078125 C207.74741259 68.71868168 217.28543568 85.6291016 218.25024486 100.05770051 C218.32591174 103.43888701 218.33861727 106.8150314 218.32992554 110.19706726 C218.33445665 111.49329995 218.33898776 112.78953265 218.34365618 114.12504512 C218.35584626 117.70759867 218.35563045 121.29005856 218.35326743 124.87262809 C218.35285825 128.74258912 218.36390815 132.61252053 218.37338257 136.48246765 C218.38997201 144.05904645 218.3954912 151.63559413 218.39660732 159.21218958 C218.39755885 165.37369599 218.40167436 171.53519216 218.40800858 177.69669533 C218.42561599 195.18091575 218.43484832 212.66511166 218.43334763 230.14934101 C218.43326772 231.09126697 218.4331878 232.03319294 218.43310547 233.00366211 C218.43302371 233.94674356 218.43294195 234.88982501 218.43285771 235.86148468 C218.43204512 251.13910468 218.4511771 266.416626 218.4793822 281.69421747 C218.50814085 297.39606284 218.52192083 313.09786014 218.52019465 328.79973251 C218.51953174 337.6091067 218.52498044 346.41837748 218.54655075 355.22772789 C218.5648019 362.72939157 218.56907775 370.23090496 218.5555319 377.73258128 C218.5490218 381.55603072 218.54881355 385.37919216 218.5662384 389.20261383 C218.58498024 393.35796307 218.57236362 397.51265151 218.55697632 401.66801453 C218.56726344 402.86201219 218.57755057 404.05600985 218.58814943 405.28618926 C218.42655295 425.11627976 208.72029384 441.20379788 195.375 455.25 C159.95562527 489.49791681 107.35083876 502.60139069 60.0625 509.25 C58.86512207 509.41991455 58.86512207 509.41991455 57.64355469 509.59326172 C44.05884801 511.48984737 30.50060886 512.40442685 16.78125 512.41796875 C15.56586548 512.42129715 14.35048096 512.42462555 13.0982666 512.42805481 C10.54370497 512.4330792 7.98913688 512.43546454 5.43457031 512.43530273 C1.59949467 512.43747901 -2.23528789 512.45565579 -6.0703125 512.47460938 C-20.80610701 512.50882898 -35.3014362 511.9947971 -49.9375 510.25 C-51.21157715 510.09861572 -52.4856543 509.94723145 -53.79833984 509.79125977 C-56.99802168 509.37935784 -60.18597388 508.9246314 -63.375 508.4375 C-64.50204346 508.26645752 -65.62908691 508.09541504 -66.7902832 507.91918945 C-112.33069243 500.7882044 -158.10097194 486.48610477 -192.9375 455.25 C-193.61296875 454.66992188 -194.2884375 454.08984375 -194.984375 453.4921875 C-205.62241259 443.78131832 -215.16043568 426.8708984 -216.12524486 412.44229949 C-216.20091174 409.06111299 -216.21361727 405.6849686 -216.20492554 402.30293274 C-216.21172221 400.3585837 -216.21172221 400.3585837 -216.21865618 398.37495488 C-216.23084626 394.79240133 -216.23063045 391.20994144 -216.22826743 387.62737191 C-216.22785825 383.75741088 -216.23890815 379.88747947 -216.24838257 376.01753235 C-216.26497201 368.44095355 -216.2704912 360.86440587 -216.27160732 353.28781042 C-216.27255885 347.12630401 -216.27667436 340.96480784 -216.28300858 334.80330467 C-216.30061599 317.31908425 -216.30984832 299.83488834 -216.30834763 282.35065899 C-216.30826772 281.40873303 -216.3081878 280.46680706 -216.30810547 279.49633789 C-216.30802371 278.55325644 -216.30794195 277.61017499 -216.30785771 276.63851532 C-216.30704512 261.36089532 -216.3261771 246.083374 -216.3543822 230.80578253 C-216.38314085 215.10393716 -216.39692083 199.40213986 -216.39519465 183.70026749 C-216.39453174 174.8908933 -216.39998044 166.08162252 -216.42155075 157.27227211 C-216.4398019 149.77060843 -216.44407775 142.26909504 -216.4305319 134.76741872 C-216.4240218 130.94396928 -216.42381355 127.12080784 -216.4412384 123.29738617 C-216.45998024 119.14203693 -216.44736362 114.98734849 -216.43197632 110.83198547 C-216.44226344 109.63798781 -216.45255057 108.44399015 -216.46314943 107.21381074 C-216.30155295 87.38372024 -206.59529384 71.29620212 -193.25 57.25 C-157.83062527 23.00208319 -105.22583876 9.89860931 -57.9375 3.25 C-57.13924805 3.13672363 -56.34099609 3.02344727 -55.51855469 2.90673828 C-50.99962252 2.27584193 -46.48004283 1.68360871 -41.9375 1.25 C-41.08389893 1.16314941 -40.23029785 1.07629883 -39.35083008 0.98681641 C-26.26805131 -0.15206111 -13.12158235 0.0061142 0 0 Z M-168.9375 59.25 C-169.81019531 59.90484375 -170.68289062 60.5596875 -171.58203125 61.234375 C-184.83635346 71.48809353 -196.62992128 84.21095813 -199.9375 101.25 C-201.21516615 115.15771021 -196.54902152 127.06668279 -187.8671875 137.8125 C-153.00098885 177.65958417 -95.30710426 189.9781156 -44.9375 196.25 C-43.41842041 196.44698486 -43.41842041 196.44698486 -41.86865234 196.64794922 C29.18276181 205.49989021 118.2767121 196.1864801 176.25 151.3125 C188.49015777 141.23006235 198.81683063 129.23567998 202.0625 113.25 C203.36209774 99.10355908 198.5266803 87.1082128 189.6171875 76.27734375 C179.73700621 64.94541005 168.23824956 56.39886412 155.0625 49.25 C154.33933594 48.85699707 153.61617188 48.46399414 152.87109375 48.05908203 C119.9597629 30.55200402 82.76798173 22.64126445 46.0625 18.25 C45.11004395 18.13140625 44.15758789 18.0128125 43.17626953 17.890625 C-24.06711307 9.82285976 -113.58089611 16.81885112 -168.9375 59.25 Z M-199.9375 149.25 C-200.03082867 157.23960079 -200.10157939 165.22896786 -200.14474869 173.21898174 C-200.16548433 176.93044696 -200.19353909 180.64153498 -200.23925781 184.3527832 C-200.2832245 187.94493544 -200.30674205 191.53672854 -200.31700897 195.12912941 C-200.32782566 197.14347318 -200.3589672 199.15767563 -200.39068604 201.17179871 C-200.39324897 211.86319497 -198.65278815 222.19277736 -192.5 231.1875 C-191.8915625 232.07824219 -191.283125 232.96898437 -190.65625 233.88671875 C-190.0890625 234.66660156 -189.521875 235.44648438 -188.9375 236.25 C-188.5146875 236.83394531 -188.091875 237.41789062 -187.65625 238.01953125 C-159.04285263 274.65627991 -99.01572073 288.17134857 -55.9375 294.25 C-54.43243896 294.47429687 -54.43243896 294.47429687 -52.89697266 294.703125 C-16.91100977 299.86543348 22.13206261 299.81745251 58.0625 294.25 C59.73675049 293.99259033 59.73675049 293.99259033 61.44482422 293.72998047 C103.7751009 286.97957722 146.6128559 275.15584833 180.0625 247.25 C181.073125 246.5075 182.08375 245.765 183.125 245 C192.77263464 236.89158912 199.49196069 224.48714522 202.0625 212.25 C202.45007928 207.32879585 202.41422735 202.42443922 202.35546875 197.4921875 C202.34986035 196.09400899 202.34559615 194.6958245 202.34260559 193.29763794 C202.33125445 189.65123677 202.30187382 186.0052049 202.26849365 182.35894775 C202.23758037 178.62476596 202.22405525 174.89052339 202.20898438 171.15625 C202.17699251 163.8539999 202.12591733 156.55205207 202.0625 149.25 C198.76422113 152.51614016 198.76422113 152.51614016 195.5703125 155.8828125 C185.47508531 166.77653223 172.12022295 174.47178285 159.0625 181.25 C158.37833008 181.61303223 157.69416016 181.97606445 156.98925781 182.35009766 C75.77433896 225.02840573 -35.33600052 222.73691518 -120.7890625 196.48046875 C-149.43497716 187.27900897 -177.03447921 173.24997232 -197.9375 151.25 C-198.5975 150.59 -199.2575 149.93 -199.9375 149.25 Z M-199.9375 249.25 C-200.0308431 257.10918214 -200.10158687 264.96823049 -200.14474869 272.82783031 C-200.16548121 276.47876478 -200.19352991 280.12931556 -200.23925781 283.7800293 C-200.2832361 287.31382745 -200.30674437 290.84726038 -200.31700897 294.38131142 C-200.32782181 296.36241851 -200.35896133 298.34338195 -200.39068604 300.32426453 C-200.39494171 317.7950044 -193.96132668 330.93447808 -181.97265625 343.3046875 C-136.64080401 388.27036969 -57.74919762 397.53172201 3.02050781 397.43310547 C55.15787844 396.8665904 109.82442982 388.56570353 156.0625 363.25 C156.69349609 362.90888184 157.32449219 362.56776367 157.97460938 362.21630859 C176.95759193 351.82984999 194.28014814 337.17117096 201.12475586 315.95776367 C202.6434381 309.69976466 202.30804628 303.30500381 202.2578125 296.90625 C202.25407576 295.52763068 202.25123191 294.14900868 202.24923706 292.77038574 C202.24165258 289.16679366 202.22204962 285.56336645 202.1998291 281.95983887 C202.17925802 278.27272775 202.17021142 274.58558963 202.16015625 270.8984375 C202.13879802 263.68221705 202.10472592 256.46613175 202.0625 249.25 C200.94851462 250.19871811 199.83540323 251.1484625 198.72265625 252.09863281 C198.10269775 252.62741028 197.48273926 253.15618774 196.84399414 253.70098877 C194.51280412 255.72796121 192.29619973 257.86653038 190.0625 260 C135.47240493 309.54644498 45.54552091 316.24789489 -24.43359375 312.9375 C-82.35602579 309.59087059 -148.79975173 297.09950806 -192.31640625 255.6953125 C-194.76930175 253.40691819 -197.30770267 251.3293235 -199.9375 249.25 Z M-199.9375 348.25 C-200.03075807 356.25687162 -200.10154445 364.26351101 -200.14474869 372.27079391 C-200.16549934 375.99013394 -200.19358273 379.70909859 -200.23925781 383.42822266 C-200.28316943 387.02685408 -200.30673088 390.6251277 -200.31700897 394.22400665 C-200.32784408 396.24448972 -200.35899526 398.26483164 -200.39068604 400.28509521 C-200.39501147 418.3299578 -192.82716972 431.33304959 -180.37548828 443.84667969 C-172.20877268 451.81650673 -162.91573958 457.83603258 -152.9375 463.25 C-151.85275391 463.83950439 -151.85275391 463.83950439 -150.74609375 464.44091797 C-117.8347629 481.94799598 -80.64298173 489.85873555 -43.9375 494.25 C-42.50881592 494.42789063 -42.50881592 494.42789063 -41.05126953 494.609375 C26.19211307 502.67714024 115.70589611 495.68114888 171.0625 453.25 C172.37154297 452.26773438 172.37154297 452.26773438 173.70703125 451.265625 C187.02889169 440.959658 198.62436905 428.31219764 202.0625 411.25 C202.14947056 409.17237361 202.18018427 407.09213707 202.17602539 405.01269531 C202.17591209 403.12118744 202.17591209 403.12118744 202.17579651 401.19146729 C202.17069028 399.82035279 202.1654743 398.44923869 202.16015625 397.078125 C202.15829028 395.67136689 202.15686722 394.26460812 202.15586853 392.85784912 C202.15205744 389.16219273 202.1422392 385.46657587 202.13116455 381.77093506 C202.12092014 377.99703506 202.11636442 374.22312865 202.11132812 370.44921875 C202.10061564 363.04946118 202.08355616 355.64973614 202.0625 348.25 C201.28108643 349.0322998 200.49967285 349.81459961 199.69458008 350.62060547 C158.50486275 391.76829637 96.35013778 406.5075489 40.0625 411.25 C39.06041504 411.33757568 38.05833008 411.42515137 37.02587891 411.51538086 C25.25193373 412.42928423 13.49091262 412.44981756 1.6875 412.4375 C0.61947144 412.43689575 -0.44855713 412.4362915 -1.5489502 412.43566895 C-17.1049747 412.41176261 -32.48198701 412.17344565 -47.9375 410.25 C-49.02192383 410.12109375 -50.10634766 409.9921875 -51.22363281 409.859375 C-84.45351082 405.82131388 -117.47059518 398.41047844 -147.9375 384.25 C-148.99203369 383.76297607 -148.99203369 383.76297607 -150.06787109 383.26611328 C-163.82152764 376.84177104 -176.32414728 369.07348116 -187.9375 359.25 C-188.59492188 358.7034375 -189.25234375 358.156875 -189.9296875 357.59375 C-193.44517225 354.6365182 -196.69344887 351.50661344 -199.9375 348.25 Z " fill="#010002" transform="translate(254.9375,-0.25)"/>
</svg>
